<?xml version="1.0" encoding="utf-8"?>
<svg viewBox="138.3855 107.8928 486.1415 105.2837" width="486.1415" height="105.2837" xmlns="http://www.w3.org/2000/svg">
  <g transform="matrix(0.40712499618530273, 0, 0, 0.40712499618530273, 135.71803283691406, 104.84178161621094)" style="">
    <g>
      <g>
        <circle class="st0" cx="126.552" cy="127.494" r="120" style="fill: rgb(56, 43, 115);"/>
        <circle class="st1" cx="126.552" cy="127.494" r="102.5" style="fill: rgb(71, 48, 128);"/>
      </g>
      <path class="st0" d="M196.762,106.294l-0.725-0.725l-1.652-1.652c-0.001-0.001-0.002-0.002-0.003-0.003l-0.722-0.722 c-1.768-1.769-4.104-2.624-6.422-2.567V86.159c0-1.786-1.17-3.387-2.873-3.92l-53.913-16.87c-1.601-0.493-3.304-0.493-4.905,0 l-53.913,16.87c-1.703,0.534-2.873,2.134-2.873,3.92v33.123c0,38.07,22.021,72.609,56.294,88.781 c0.021,0.02,0.041,0.041,0.062,0.041c0.308,0.144,0.616,0.288,0.924,0.41c0.616,0.205,1.272,0.328,1.97,0.328 c0.698,0,1.375-0.123,1.991-0.328c0.308-0.123,0.595-0.266,0.903-0.41c0.021,0,0.041-0.021,0.062-0.041 c31.43-14.831,52.539-45.109,55.824-79.391l9.972-9.973C200.189,115.274,200.189,109.72,196.762,106.294z" style="fill: rgb(56, 43, 115);"/>
      <g>
        <g>
          <path class="st2" d="M187.239,79.159v33.123c0,38.07-22.001,72.609-56.273,88.781c-0.02,0.021-0.041,0.041-0.062,0.041 c-0.308,0.144-0.595,0.288-0.903,0.41c-0.615,0.206-1.293,0.328-1.991,0.328c-0.698,0-1.354-0.123-1.97-0.328 c-0.308-0.123-0.616-0.267-0.924-0.41c-0.021,0-0.041-0.02-0.062-0.041c-34.273-16.172-56.294-50.711-56.294-88.781V79.159 c0-1.786,1.17-3.386,2.873-3.92l53.913-16.87c1.601-0.493,3.304-0.493,4.905,0l53.913,16.87 C186.069,75.773,187.239,77.373,187.239,79.159z" style="fill: rgb(255, 255, 255);"/>
          <path class="st3" d="M179.707,85.644v28.917c0,33.103-19.045,63.148-48.741,77.329c-0.02,0.021-0.041,0.041-0.062,0.041 c-0.308,0.143-0.595,0.287-0.903,0.41c-0.021,0-0.041,0.021-0.062,0.021c-0.595,0.185-1.252,0.308-1.929,0.308 c-0.698,0-1.354-0.123-1.97-0.329c-0.308-0.123-0.616-0.267-0.924-0.41c-0.021,0-0.041-0.021-0.062-0.041 c-29.717-14.181-48.762-44.226-48.762-77.329V85.644c0-1.56,1.006-2.955,2.504-3.427l47.059-14.715 c1.396-0.431,2.894-0.431,4.289,0l47.058,14.715C178.701,82.689,179.707,84.084,179.707,85.644z" style="fill: rgb(209, 211, 212);"/>
          <path class="st4" d="M170.205,91.103v26.269c0,26.823-15.31,51.163-39.239,62.841c-0.02,0.02-0.041,0.041-0.062,0.041 c-0.308,0.144-0.595,0.287-0.903,0.411c-0.021,0-0.041,0.021-0.062,0.021c-0.595,0.185-1.252,0.308-1.929,0.308 c-0.698,0-1.354-0.123-1.97-0.328c-0.246-0.103-0.513-0.226-0.759-0.349c-0.062-0.021-0.103-0.041-0.164-0.062 c-0.021,0-0.041-0.02-0.062-0.041c-23.929-11.678-39.239-36.017-39.239-62.841V91.103c0-0.903,0.575-1.703,1.437-1.97 l39.527-12.355c0.801-0.246,1.642-0.246,2.442,0l39.527,12.355C169.61,89.4,170.205,90.2,170.205,91.103z" style="fill: rgb(19, 109, 160);"/>
        </g>
        <g>
          <g>
            <g>
              <g>
                <g>
                  <g>
                    <g>
                      <rect x="106.11" y="90.727" class="st4" width="43.779" height="61.46" style="fill: rgb(19, 109, 160);"/>
                    </g>
                  </g>
                </g>
              </g>
              <g>
                <g>
                  <g>
                    <g>
                      <g>
                        <g>
                          <path class="st5" d="M150.521,109.039h-45.042c-1.86,0-3.368-1.508-3.368-3.368V94.095c0-1.86,1.508-3.368,3.368-3.368 h45.042c1.86,0,3.368,1.508,3.368,3.368v11.576C153.889,107.531,152.381,109.039,150.521,109.039z" style="fill: rgb(28, 174, 228);"/>
                        </g>
                      </g>
                    </g>
                  </g>
                  <g>
                    <g>
                      <g>
                        <g>
                          <path class="st6" d="M150.521,106.513h-45.042c-1.86,0-3.368-1.508-3.368-3.368v2.526c0,1.86,1.508,3.368,3.368,3.368 h45.042c1.86,0,3.368-1.508,3.368-3.368v-2.526C153.889,105.006,152.381,106.513,150.521,106.513z" style="fill: rgb(0, 154, 221);"/>
                        </g>
                      </g>
                    </g>
                  </g>
                  <g>
                    <g>
                      <g>
                        <g>
                          <circle class="st7" cx="112.319" cy="99.883" r="3.262" style="fill: rgb(254, 222, 58);"/>
                        </g>
                      </g>
                    </g>
                  </g>
                  <g>
                    <g>
                      <g>
                        <g>
                          <path class="st8" d="M112.319,101.462c-1.509,0-2.766-1.03-3.139-2.421c-0.072,0.27-0.123,0.549-0.123,0.842 c0,1.802,1.461,3.262,3.262,3.262c1.802,0,3.262-1.461,3.262-3.262c0-0.293-0.051-0.572-0.124-0.842 C115.085,100.432,113.828,101.462,112.319,101.462z" style="fill: rgb(247, 203, 21);"/>
                        </g>
                      </g>
                    </g>
                  </g>
                  <g>
                    <g>
                      <g>
                        <g>
                          <g>
                            <path class="st7" d="M138.553,103.146L138.553,103.146c-0.55,0-0.996-0.446-0.996-0.996v-4.515 c0-0.55,0.446-0.996,0.996-0.996l0,0c0.55,0,0.996,0.446,0.996,0.996v4.515 C139.549,102.7,139.103,103.146,138.553,103.146z" style="fill: rgb(254, 222, 58);"/>
                          </g>
                        </g>
                      </g>
                    </g>
                    <g>
                      <g>
                        <g>
                          <g>
                            <path class="st7" d="M138.553,103.146L138.553,103.146c-0.55,0-0.996-0.446-0.996-0.996v-4.515 c0-0.55,0.446-0.996,0.996-0.996l0,0c0.55,0,0.996,0.446,0.996,0.996v4.515 C139.549,102.7,139.103,103.146,138.553,103.146z" style="fill: rgb(254, 222, 58);"/>
                          </g>
                        </g>
                      </g>
                    </g>
                    <g>
                      <g>
                        <g>
                          <g>
                            <path class="st8" d="M138.553,101.462c-0.55,0-0.996-0.446-0.996-0.996v1.684c0,0.55,0.446,0.996,0.996,0.996 s0.996-0.446,0.996-0.996v-1.684C139.549,101.016,139.103,101.462,138.553,101.462z" style="fill: rgb(247, 203, 21);"/>
                          </g>
                        </g>
                      </g>
                    </g>
                    <g>
                      <g>
                        <g>
                          <g>
                            <path class="st7" d="M142.973,103.146L142.973,103.146c-0.55,0-0.996-0.446-0.996-0.996v-4.515 c0-0.55,0.446-0.996,0.996-0.996l0,0c0.55,0,0.996,0.446,0.996,0.996v4.515 C143.969,102.7,143.523,103.146,142.973,103.146z" style="fill: rgb(254, 222, 58);"/>
                          </g>
                        </g>
                      </g>
                    </g>
                    <g>
                      <g>
                        <g>
                          <g>
                            <path class="st7" d="M147.393,103.146L147.393,103.146c-0.55,0-0.996-0.446-0.996-0.996v-4.515 c0-0.55,0.446-0.996,0.996-0.996l0,0c0.55,0,0.996,0.446,0.996,0.996v4.515 C148.389,102.7,147.943,103.146,147.393,103.146z" style="fill: rgb(254, 222, 58);"/>
                          </g>
                        </g>
                      </g>
                    </g>
                    <g>
                      <g>
                        <g>
                          <g>
                            <path class="st8" d="M142.973,101.462c-0.55,0-0.996-0.446-0.996-0.996v1.684c0,0.55,0.446,0.996,0.996,0.996 c0.55,0,0.996-0.446,0.996-0.996v-1.684C143.969,101.016,143.523,101.462,142.973,101.462z" style="fill: rgb(247, 203, 21);"/>
                          </g>
                        </g>
                      </g>
                    </g>
                    <g>
                      <g>
                        <g>
                          <g>
                            <path class="st8" d="M147.393,101.462c-0.55,0-0.996-0.446-0.996-0.996v1.684c0,0.55,0.446,0.996,0.996,0.996 c0.55,0,0.996-0.446,0.996-0.996v-1.684C148.389,101.016,147.943,101.462,147.393,101.462z" style="fill: rgb(247, 203, 21);"/>
                          </g>
                        </g>
                      </g>
                    </g>
                  </g>
                </g>
                <g>
                  <g>
                    <g>
                      <g>
                        <g>
                          <path class="st5" d="M150.521,130.613h-45.042c-1.86,0-3.368-1.508-3.368-3.368v-11.576 c0-1.86,1.508-3.368,3.368-3.368h45.042c1.86,0,3.368,1.508,3.368,3.368v11.576 C153.889,129.105,152.381,130.613,150.521,130.613z" style="fill: rgb(28, 174, 228);"/>
                        </g>
                      </g>
                    </g>
                  </g>
                  <g>
                    <g>
                      <g>
                        <g>
                          <path class="st6" d="M150.521,128.087h-45.042c-1.86,0-3.368-1.508-3.368-3.368v2.526c0,1.86,1.508,3.368,3.368,3.368 h45.042c1.86,0,3.368-1.508,3.368-3.368v-2.526C153.889,126.579,152.381,128.087,150.521,128.087z" style="fill: rgb(0, 154, 221);"/>
                        </g>
                      </g>
                    </g>
                  </g>
                  <g>
                    <g>
                      <g>
                        <g>
                          <circle class="st7" cx="112.319" cy="121.457" r="3.262" style="fill: rgb(254, 222, 58);"/>
                        </g>
                      </g>
                    </g>
                  </g>
                  <g>
                    <g>
                      <g>
                        <g>
                          <g>
                            <path class="st7" d="M138.553,124.71L138.553,124.71c-0.55,0-0.996-0.446-0.996-0.996V119.2 c0-0.55,0.446-0.996,0.996-0.996l0,0c0.55,0,0.996,0.446,0.996,0.996v4.515 C139.549,124.265,139.103,124.71,138.553,124.71z" style="fill: rgb(254, 222, 58);"/>
                          </g>
                        </g>
                      </g>
                    </g>
                    <g>
                      <g>
                        <g>
                          <g>
                            <path class="st7" d="M142.973,124.71L142.973,124.71c-0.55,0-0.996-0.446-0.996-0.996V119.2 c0-0.55,0.446-0.996,0.996-0.996l0,0c0.55,0,0.996,0.446,0.996,0.996v4.515 C143.969,124.265,143.523,124.71,142.973,124.71z" style="fill: rgb(254, 222, 58);"/>
                          </g>
                        </g>
                      </g>
                    </g>
                    <g>
                      <g>
                        <g>
                          <g>
                            <path class="st7" d="M147.393,124.71L147.393,124.71c-0.55,0-0.996-0.446-0.996-0.996V119.2 c0-0.55,0.446-0.996,0.996-0.996l0,0c0.55,0,0.996,0.446,0.996,0.996v4.515 C148.389,124.265,147.943,124.71,147.393,124.71z" style="fill: rgb(254, 222, 58);"/>
                          </g>
                        </g>
                      </g>
                    </g>
                  </g>
                </g>
                <g>
                  <g>
                    <g>
                      <g>
                        <g>
                          <path class="st5" d="M150.521,152.187h-45.042c-1.86,0-3.368-1.508-3.368-3.368v-11.576 c0-1.86,1.508-3.368,3.368-3.368h45.042c1.86,0,3.368,1.508,3.368,3.368v11.576 C153.889,150.679,152.381,152.187,150.521,152.187z" style="fill: rgb(28, 174, 228);"/>
                        </g>
                      </g>
                    </g>
                  </g>
                  <g>
                    <g>
                      <g>
                        <g>
                          <path class="st6" d="M150.521,149.661h-45.042c-1.86,0-3.368-1.508-3.368-3.368v2.526c0,1.86,1.508,3.368,3.368,3.368 h45.042c1.86,0,3.368-1.508,3.368-3.368v-2.526C153.889,148.154,152.381,149.661,150.521,149.661z" style="fill: rgb(0, 154, 221);"/>
                        </g>
                      </g>
                    </g>
                  </g>
                  <g>
                    <g>
                      <g>
                        <g>
                          <path class="st7" d="M115.582,143.031c0,1.802-1.461,3.262-3.262,3.262c-1.802,0-3.262-1.461-3.262-3.262 c0-1.802,1.461-3.262,3.262-3.262C114.121,139.769,115.582,141.229,115.582,143.031z" style="fill: rgb(254, 222, 58);"/>
                        </g>
                      </g>
                    </g>
                  </g>
                  <g>
                    <g>
                      <g>
                        <g>
                          <g>
                            <path class="st7" d="M138.553,146.275L138.553,146.275c-0.55,0-0.996-0.446-0.996-0.996v-4.515 c0-0.55,0.446-0.996,0.996-0.996l0,0c0.55,0,0.996,0.446,0.996,0.996v4.515 C139.549,145.829,139.103,146.275,138.553,146.275z" style="fill: rgb(254, 222, 58);"/>
                          </g>
                        </g>
                      </g>
                    </g>
                    <g>
                      <g>
                        <g>
                          <g>
                            <path class="st7" d="M142.973,146.275L142.973,146.275c-0.55,0-0.996-0.446-0.996-0.996v-4.515 c0-0.55,0.446-0.996,0.996-0.996l0,0c0.55,0,0.996,0.446,0.996,0.996v4.515 C143.969,145.829,143.523,146.275,142.973,146.275z" style="fill: rgb(254, 222, 58);"/>
                          </g>
                        </g>
                      </g>
                    </g>
                    <g>
                      <g>
                        <g>
                          <g>
                            <path class="st7" d="M147.393,146.275L147.393,146.275c-0.55,0-0.996-0.446-0.996-0.996v-4.515 c0-0.55,0.446-0.996,0.996-0.996l0,0c0.55,0,0.996,0.446,0.996,0.996v4.515 C148.389,145.829,147.943,146.275,147.393,146.275z" style="fill: rgb(254, 222, 58);"/>
                          </g>
                        </g>
                      </g>
                    </g>
                  </g>
                </g>
              </g>
            </g>
            <g>
              <g>
                <g>
                  <g>
                    <path class="st8" d="M112.319,123.083c-1.509,0-2.766-1.03-3.139-2.421c-0.072,0.27-0.123,0.549-0.123,0.842 c0,1.802,1.461,3.262,3.262,3.262c1.802,0,3.262-1.461,3.262-3.262c0-0.293-0.051-0.572-0.124-0.842 C115.085,122.053,113.828,123.083,112.319,123.083z" style="fill: rgb(247, 203, 21);"/>
                  </g>
                </g>
              </g>
            </g>
            <g>
              <g>
                <g>
                  <g>
                    <path class="st8" d="M138.553,123.083c-0.55,0-0.996-0.446-0.996-0.996v1.684c0,0.55,0.446,0.996,0.996,0.996 s0.996-0.446,0.996-0.996v-1.684C139.549,122.637,139.103,123.083,138.553,123.083z" style="fill: rgb(247, 203, 21);"/>
                  </g>
                </g>
              </g>
            </g>
            <g>
              <g>
                <g>
                  <g>
                    <path class="st8" d="M142.973,123.083c-0.55,0-0.996-0.446-0.996-0.996v1.684c0,0.55,0.446,0.996,0.996,0.996 c0.55,0,0.996-0.446,0.996-0.996v-1.684C143.969,122.637,143.523,123.083,142.973,123.083z" style="fill: rgb(247, 203, 21);"/>
                  </g>
                </g>
              </g>
            </g>
            <g>
              <g>
                <g>
                  <g>
                    <path class="st8" d="M147.393,123.083c-0.55,0-0.996-0.446-0.996-0.996v1.684c0,0.55,0.446,0.996,0.996,0.996 c0.55,0,0.996-0.446,0.996-0.996v-1.684C148.389,122.637,147.943,123.083,147.393,123.083z" style="fill: rgb(247, 203, 21);"/>
                  </g>
                </g>
              </g>
            </g>
            <g>
              <g>
                <g>
                  <g>
                    <path class="st8" d="M112.319,144.592c-1.509,0-2.766-1.03-3.139-2.421c-0.072,0.27-0.123,0.549-0.123,0.842 c0,1.802,1.461,3.263,3.262,3.263c1.802,0,3.262-1.461,3.262-3.263c0-0.293-0.051-0.572-0.124-0.842 C115.085,143.562,113.828,144.592,112.319,144.592z" style="fill: rgb(247, 203, 21);"/>
                  </g>
                </g>
              </g>
            </g>
            <g>
              <g>
                <g>
                  <g>
                    <path class="st8" d="M138.553,144.592c-0.55,0-0.996-0.446-0.996-0.996v1.684c0,0.55,0.446,0.996,0.996,0.996 s0.996-0.446,0.996-0.996v-1.684C139.549,144.146,139.103,144.592,138.553,144.592z" style="fill: rgb(247, 203, 21);"/>
                  </g>
                </g>
              </g>
            </g>
            <g>
              <g>
                <g>
                  <g>
                    <path class="st8" d="M142.973,144.592c-0.55,0-0.996-0.446-0.996-0.996v1.684c0,0.55,0.446,0.996,0.996,0.996 c0.55,0,0.996-0.446,0.996-0.996v-1.684C143.969,144.146,143.523,144.592,142.973,144.592z" style="fill: rgb(247, 203, 21);"/>
                  </g>
                </g>
              </g>
            </g>
            <g>
              <g>
                <g>
                  <g>
                    <path class="st8" d="M147.393,144.592c-0.55,0-0.996-0.446-0.996-0.996v1.684c0,0.55,0.446,0.996,0.996,0.996 c0.55,0,0.996-0.446,0.996-0.996v-1.684C148.389,144.146,147.943,144.592,147.393,144.592z" style="fill: rgb(247, 203, 21);"/>
                  </g>
                </g>
              </g>
            </g>
          </g>
        </g>
        <path class="st3" d="M181.254,100.192l-8.161,8.161l0,0l-2.888,2.888v6.131c0,11.905-3.021,23.317-8.468,33.353l21.298-21.299 l3.21-3.21c0.655-4.572,0.994-9.226,0.994-13.935v-14.65C185.067,97.687,182.911,98.534,181.254,100.192z" style="fill: rgb(209, 211, 212);"/>
        <g>
          <g>
            <path class="st9" d="M146.358,160.839l-16.936,5.454c-1.701,0.548-3.308-1.059-2.76-2.76l5.454-16.936 c0.395-1.227,1.077-2.343,1.989-3.255l47.15-47.15c3.426-3.426,8.981-3.426,12.407,0l3.102,3.102 c3.426,3.426,3.426,8.981,0,12.407l-47.15,47.15C148.701,159.762,147.585,160.443,146.358,160.839z" style="fill: rgb(239, 90, 157);"/>
          </g>
          <g>
            <path class="st10" d="M143.029,157.51l-14.253,8.138c-1.431,0.817-2.287-0.039-1.47-1.47l8.138-14.253 c0.59-1.033,1.373-2.047,2.285-2.959l47.15-47.15c3.426-3.426,7.683-4.724,9.507-2.9l1.652,1.652 c1.825,1.825,0.526,6.081-2.9,9.507l-47.15,47.15C145.076,156.137,144.062,156.92,143.029,157.51z" style="fill: rgb(240, 110, 169);"/>
          </g>
          <g>
            <rect x="167.098" y="110.954" transform="matrix(0.7071 0.7071 -0.7071 0.7071 133.3939 -92.2603)" class="st8" width="21.932" height="7.872" style="fill: rgb(247, 203, 21);"/>
          </g>
          <g>
            <path class="st11" d="M134.311,143.135l-0.207,0.207c-0.912,0.912-1.594,2.027-1.989,3.255l-5.454,16.936 c-0.548,1.701,1.059,3.307,2.76,2.76l16.937-5.454c1.227-0.395,2.343-1.077,3.255-1.989l0.207-0.207L134.311,143.135z" style="fill: rgb(231, 173, 39);"/>
          </g>
          <g>
            <path class="st8" d="M137.936,146.759l-0.207,0.207c-0.912,0.912-1.695,1.926-2.285,2.959l-8.138,14.253 c-0.408,0.715-0.399,1.286-0.109,1.577c0.001,0.001,0.001,0.001,0.002,0.002c0.291,0.29,0.862,0.299,1.577-0.109l14.253-8.138 c1.033-0.59,2.047-1.373,2.959-2.285l0.207-0.207L137.936,146.759z" style="fill: rgb(247, 203, 21);"/>
          </g>
          <g>
            <path class="st9" d="M128.333,158.343l-1.671,5.19c-0.548,1.701,1.059,3.307,2.76,2.76l5.19-1.671L128.333,158.343z" style="fill: rgb(239, 90, 157);"/>
          </g>
        </g>
      </g>
    </g>
  </g>
  <path d="M 248.057 126.376 Q 249.837 126.109 252.196 125.975 Q 254.554 125.842 257.091 125.753 Q 259.627 125.664 262.075 125.619 Q 264.522 125.575 266.569 125.575 Q 274.757 125.575 280.765 127.933 Q 286.772 130.292 290.733 134.475 Q 294.693 138.658 296.651 144.443 Q 298.609 150.228 298.609 157.081 Q 298.609 163.311 296.785 169.14 Q 294.96 174.97 290.955 179.509 Q 286.95 184.048 280.676 186.807 Q 274.401 189.566 265.501 189.566 Q 263.988 189.566 261.452 189.477 Q 258.915 189.388 256.245 189.299 Q 253.575 189.21 251.306 189.076 Q 249.036 188.943 248.057 188.765 Z M 266.836 133.407 Q 265.59 133.407 264.166 133.407 Q 262.742 133.407 261.318 133.496 Q 259.894 133.585 258.737 133.674 Q 257.58 133.763 256.957 133.852 L 256.957 181.378 Q 257.402 181.467 258.693 181.511 Q 259.983 181.556 261.407 181.6 Q 262.831 181.645 264.077 181.689 Q 265.323 181.734 265.857 181.734 Q 272.532 181.734 277.027 179.642 Q 281.521 177.551 284.236 174.08 Q 286.95 170.609 288.063 166.203 Q 289.175 161.798 289.175 157.081 Q 289.175 153.076 288.107 148.893 Q 287.039 144.71 284.458 141.283 Q 281.877 137.857 277.605 135.632 Q 273.333 133.407 266.836 133.407 Z M 316.582 126.376 Q 318.362 126.109 320.721 125.975 Q 323.079 125.842 325.616 125.753 Q 328.152 125.664 330.6 125.619 Q 333.047 125.575 335.094 125.575 Q 343.282 125.575 349.29 127.933 Q 355.297 130.292 359.258 134.475 Q 363.218 138.658 365.176 144.443 Q 367.134 150.228 367.134 157.081 Q 367.134 163.311 365.31 169.14 Q 363.485 174.97 359.48 179.509 Q 355.475 184.048 349.201 186.807 Q 342.926 189.566 334.026 189.566 Q 332.513 189.566 329.977 189.477 Q 327.44 189.388 324.77 189.299 Q 322.1 189.21 319.831 189.076 Q 317.561 188.943 316.582 188.765 Z M 335.361 133.407 Q 334.115 133.407 332.691 133.407 Q 331.267 133.407 329.843 133.496 Q 328.419 133.585 327.262 133.674 Q 326.105 133.763 325.482 133.852 L 325.482 181.378 Q 325.927 181.467 327.218 181.511 Q 328.508 181.556 329.932 181.6 Q 331.356 181.645 332.602 181.689 Q 333.848 181.734 334.382 181.734 Q 341.057 181.734 345.552 179.642 Q 350.046 177.551 352.761 174.08 Q 355.475 170.609 356.588 166.203 Q 357.7 161.798 357.7 157.081 Q 357.7 153.076 356.632 148.893 Q 355.564 144.71 352.983 141.283 Q 350.402 137.857 346.13 135.632 Q 341.858 133.407 335.361 133.407 Z M 407.63 184.849 Q 404.515 187.163 399.887 188.542 Q 395.259 189.922 389.83 189.922 Q 383.956 189.922 379.64 188.186 Q 375.323 186.451 372.564 183.247 Q 369.805 180.043 368.47 175.504 Q 367.135 170.965 367.135 165.358 Q 367.135 153.343 373.054 146.979 Q 378.972 140.616 389.919 140.616 Q 393.39 140.616 396.861 141.372 Q 400.332 142.129 403.091 144.22 Q 405.85 146.312 407.586 149.961 Q 409.321 153.61 409.321 159.484 Q 409.321 160.908 409.232 162.777 Q 409.143 164.646 408.876 166.426 L 375.501 166.426 Q 375.679 174.614 379.417 178.797 Q 383.155 182.98 392.144 182.98 Q 395.882 182.98 399.264 181.689 Q 402.646 180.399 404.515 178.619 Z M 401.489 160.552 Q 401.667 153.432 398.597 150.495 Q 395.526 147.558 390.008 147.558 Q 383.778 147.558 380.129 150.495 Q 376.48 153.432 375.857 160.552 Z M 435.932 175.593 Q 435.932 173.813 435.086 172.611 Q 434.241 171.41 432.817 170.564 Q 431.393 169.719 429.524 169.096 Q 427.655 168.473 425.608 167.85 Q 423.027 167.138 420.401 166.292 Q 417.776 165.447 415.684 163.978 Q 413.593 162.51 412.258 160.196 Q 410.923 157.882 410.923 154.322 Q 410.923 147.38 415.061 143.998 Q 419.2 140.616 426.676 140.616 Q 432.283 140.616 436.11 141.684 Q 439.937 142.752 442.785 143.998 L 440.827 150.94 Q 438.424 149.783 435.086 148.67 Q 431.749 147.558 427.744 147.558 Q 423.383 147.558 421.247 148.982 Q 419.111 150.406 419.111 154.144 Q 419.111 155.657 419.912 156.68 Q 420.713 157.704 422.048 158.46 Q 423.383 159.217 425.163 159.795 Q 426.943 160.374 428.901 160.908 Q 431.571 161.62 434.241 162.554 Q 436.911 163.489 439.136 165.046 Q 441.361 166.604 442.74 169.007 Q 444.12 171.41 444.12 175.059 Q 444.12 181.645 439.67 185.783 Q 435.22 189.922 426.32 189.922 Q 420.624 189.922 416.396 188.765 Q 412.169 187.608 409.321 186.095 L 411.635 178.975 Q 414.127 180.31 418.043 181.645 Q 421.959 182.98 425.964 182.98 Q 430.325 182.98 433.128 181.422 Q 435.932 179.865 435.932 175.593 Z M 448.576 141.951 L 456.764 141.951 L 456.764 188.676 L 448.576 188.676 Z M 446.885 130.826 Q 446.885 128.779 448.487 127.132 Q 450.089 125.486 452.67 125.486 Q 455.251 125.486 456.942 127.132 Q 458.633 128.779 458.633 130.826 Q 458.633 132.873 456.942 134.43 Q 455.251 135.988 452.67 135.988 Q 450.089 135.988 448.487 134.43 Q 446.885 132.873 446.885 130.826 Z M 503.934 188.943 Q 503.934 198.11 498.55 202.604 Q 493.165 207.099 482.752 207.099 Q 476.7 207.099 472.962 206.387 Q 469.224 205.675 466.554 204.429 L 468.512 197.042 Q 469.669 197.576 471.182 198.154 Q 472.695 198.733 474.386 199.178 Q 476.077 199.623 477.813 199.89 Q 479.548 200.157 481.15 200.157 Q 485.511 200.157 488.359 199.4 Q 491.207 198.644 492.898 197.042 Q 494.589 195.44 495.212 192.948 Q 495.835 190.456 495.835 186.985 L 495.835 183.692 L 494.856 183.692 Q 493.432 186.006 489.872 187.43 Q 486.312 188.854 481.239 188.854 Q 471.093 188.854 466.287 183.38 Q 461.481 177.907 461.481 165.714 Q 461.481 153.699 467.711 147.202 Q 473.941 140.705 486.223 140.705 Q 492.097 140.705 496.325 141.417 Q 500.552 142.129 503.934 143.286 Z M 483.019 181.912 Q 488.448 181.912 491.519 179.153 Q 494.589 176.394 495.746 171.944 L 495.746 148.982 Q 493.699 148.359 491.029 148.003 Q 488.359 147.647 484.977 147.647 Q 478.035 147.647 474.119 152.052 Q 470.203 156.458 470.203 165.536 Q 470.203 173.368 473.096 177.64 Q 475.988 181.912 483.019 181.912 Z M 542.468 188.676 L 542.468 162.866 Q 542.468 155.39 540.065 151.652 Q 537.662 147.914 531.521 147.914 Q 526.092 147.914 522.487 150.717 Q 518.883 153.521 517.459 157.882 L 517.459 188.676 L 509.271 188.676 L 509.271 141.951 L 514.967 141.951 L 516.569 148.181 L 517.37 148.181 Q 519.951 144.977 524.089 142.796 Q 528.228 140.616 534.013 140.616 Q 538.107 140.616 541.222 141.55 Q 544.337 142.485 546.428 144.843 Q 548.52 147.202 549.588 151.162 Q 550.656 155.123 550.656 161.175 L 550.656 188.676 Z M 593.822 184.849 Q 590.707 187.163 586.079 188.542 Q 581.451 189.922 576.022 189.922 Q 570.148 189.922 565.831 188.186 Q 561.515 186.451 558.756 183.247 Q 555.997 180.043 554.662 175.504 Q 553.327 170.965 553.327 165.358 Q 553.327 153.343 559.245 146.979 Q 565.164 140.616 576.111 140.616 Q 579.582 140.616 583.053 141.372 Q 586.524 142.129 589.283 144.22 Q 592.042 146.312 593.777 149.961 Q 595.513 153.61 595.513 159.484 Q 595.513 160.908 595.424 162.777 Q 595.335 164.646 595.068 166.426 L 561.693 166.426 Q 561.871 174.614 565.609 178.797 Q 569.347 182.98 578.336 182.98 Q 582.074 182.98 585.456 181.689 Q 588.838 180.399 590.707 178.619 Z M 587.681 160.552 Q 587.859 153.432 584.788 150.495 Q 581.718 147.558 576.2 147.558 Q 569.97 147.558 566.321 150.495 Q 562.672 153.432 562.049 160.552 Z M 622.925 149.694 Q 621.412 149.249 619.988 148.893 Q 618.564 148.537 617.318 148.537 Q 612.601 148.537 609.975 150.94 Q 607.35 153.343 606.727 156.992 L 606.727 188.676 L 598.539 188.676 L 598.539 141.951 L 604.235 141.951 L 605.837 148.181 L 606.638 148.181 Q 608.685 144.71 611.399 142.796 Q 614.114 140.883 618.208 140.883 Q 619.454 140.883 621.145 141.105 Q 622.836 141.328 624.527 141.862 Z" style="fill: rgb(255, 255, 255); stroke-miterlimit: 14.42; opacity: 0.9;"/>
</svg>