<?xml version="1.0" encoding="utf-8"?>
<svg viewBox="154.4283 115.2537 243.8113 93.3856" width="243.8113" height="93.3856" xmlns="http://www.w3.org/2000/svg">
  <g transform="matrix(0.3402799963951111, 0, 0, 0.3402799963951111, 152.19882202148438, 121.38554382324219)" style="">
    <g>
      <g>
        <circle class="st0" cx="126.552" cy="127.494" r="120" style="fill: rgb(56, 43, 115);"/>
        <circle class="st1" cx="126.552" cy="127.494" r="102.5" style="fill: rgb(71, 48, 128);"/>
      </g>
      <path class="st0" d="M196.762,106.294l-0.725-0.725l-1.652-1.652c-0.001-0.001-0.002-0.002-0.003-0.003l-0.722-0.722 c-1.768-1.769-4.104-2.624-6.422-2.567V86.159c0-1.786-1.17-3.387-2.873-3.92l-53.913-16.87c-1.601-0.493-3.304-0.493-4.905,0 l-53.913,16.87c-1.703,0.534-2.873,2.134-2.873,3.92v33.123c0,38.07,22.021,72.609,56.294,88.781 c0.021,0.02,0.041,0.041,0.062,0.041c0.308,0.144,0.616,0.288,0.924,0.41c0.616,0.205,1.272,0.328,1.97,0.328 c0.698,0,1.375-0.123,1.991-0.328c0.308-0.123,0.595-0.266,0.903-0.41c0.021,0,0.041-0.021,0.062-0.041 c31.43-14.831,52.539-45.109,55.824-79.391l9.972-9.973C200.189,115.274,200.189,109.72,196.762,106.294z" style="fill: rgb(56, 43, 115);"/>
      <g>
        <g>
          <path class="st2" d="M187.239,79.159v33.123c0,38.07-22.001,72.609-56.273,88.781c-0.02,0.021-0.041,0.041-0.062,0.041 c-0.308,0.144-0.595,0.288-0.903,0.41c-0.615,0.206-1.293,0.328-1.991,0.328c-0.698,0-1.354-0.123-1.97-0.328 c-0.308-0.123-0.616-0.267-0.924-0.41c-0.021,0-0.041-0.02-0.062-0.041c-34.273-16.172-56.294-50.711-56.294-88.781V79.159 c0-1.786,1.17-3.386,2.873-3.92l53.913-16.87c1.601-0.493,3.304-0.493,4.905,0l53.913,16.87 C186.069,75.773,187.239,77.373,187.239,79.159z" style="fill: rgb(255, 255, 255);"/>
          <path class="st3" d="M179.707,85.644v28.917c0,33.103-19.045,63.148-48.741,77.329c-0.02,0.021-0.041,0.041-0.062,0.041 c-0.308,0.143-0.595,0.287-0.903,0.41c-0.021,0-0.041,0.021-0.062,0.021c-0.595,0.185-1.252,0.308-1.929,0.308 c-0.698,0-1.354-0.123-1.97-0.329c-0.308-0.123-0.616-0.267-0.924-0.41c-0.021,0-0.041-0.021-0.062-0.041 c-29.717-14.181-48.762-44.226-48.762-77.329V85.644c0-1.56,1.006-2.955,2.504-3.427l47.059-14.715 c1.396-0.431,2.894-0.431,4.289,0l47.058,14.715C178.701,82.689,179.707,84.084,179.707,85.644z" style="fill: rgb(209, 211, 212);"/>
          <path class="st4" d="M170.205,91.103v26.269c0,26.823-15.31,51.163-39.239,62.841c-0.02,0.02-0.041,0.041-0.062,0.041 c-0.308,0.144-0.595,0.287-0.903,0.411c-0.021,0-0.041,0.021-0.062,0.021c-0.595,0.185-1.252,0.308-1.929,0.308 c-0.698,0-1.354-0.123-1.97-0.328c-0.246-0.103-0.513-0.226-0.759-0.349c-0.062-0.021-0.103-0.041-0.164-0.062 c-0.021,0-0.041-0.02-0.062-0.041c-23.929-11.678-39.239-36.017-39.239-62.841V91.103c0-0.903,0.575-1.703,1.437-1.97 l39.527-12.355c0.801-0.246,1.642-0.246,2.442,0l39.527,12.355C169.61,89.4,170.205,90.2,170.205,91.103z" style="fill: rgb(19, 109, 160);"/>
        </g>
        <g>
          <g>
            <g>
              <g>
                <g>
                  <g>
                    <g>
                      <rect x="106.11" y="90.727" class="st4" width="43.779" height="61.46" style="fill: rgb(19, 109, 160);"/>
                    </g>
                  </g>
                </g>
              </g>
              <g>
                <g>
                  <g>
                    <g>
                      <g>
                        <g>
                          <path class="st5" d="M150.521,109.039h-45.042c-1.86,0-3.368-1.508-3.368-3.368V94.095c0-1.86,1.508-3.368,3.368-3.368 h45.042c1.86,0,3.368,1.508,3.368,3.368v11.576C153.889,107.531,152.381,109.039,150.521,109.039z" style="fill: rgb(28, 174, 228);"/>
                        </g>
                      </g>
                    </g>
                  </g>
                  <g>
                    <g>
                      <g>
                        <g>
                          <path class="st6" d="M150.521,106.513h-45.042c-1.86,0-3.368-1.508-3.368-3.368v2.526c0,1.86,1.508,3.368,3.368,3.368 h45.042c1.86,0,3.368-1.508,3.368-3.368v-2.526C153.889,105.006,152.381,106.513,150.521,106.513z" style="fill: rgb(0, 154, 221);"/>
                        </g>
                      </g>
                    </g>
                  </g>
                  <g>
                    <g>
                      <g>
                        <g>
                          <circle class="st7" cx="112.319" cy="99.883" r="3.262" style="fill: rgb(254, 222, 58);"/>
                        </g>
                      </g>
                    </g>
                  </g>
                  <g>
                    <g>
                      <g>
                        <g>
                          <path class="st8" d="M112.319,101.462c-1.509,0-2.766-1.03-3.139-2.421c-0.072,0.27-0.123,0.549-0.123,0.842 c0,1.802,1.461,3.262,3.262,3.262c1.802,0,3.262-1.461,3.262-3.262c0-0.293-0.051-0.572-0.124-0.842 C115.085,100.432,113.828,101.462,112.319,101.462z" style="fill: rgb(247, 203, 21);"/>
                        </g>
                      </g>
                    </g>
                  </g>
                  <g>
                    <g>
                      <g>
                        <g>
                          <g>
                            <path class="st7" d="M138.553,103.146L138.553,103.146c-0.55,0-0.996-0.446-0.996-0.996v-4.515 c0-0.55,0.446-0.996,0.996-0.996l0,0c0.55,0,0.996,0.446,0.996,0.996v4.515 C139.549,102.7,139.103,103.146,138.553,103.146z" style="fill: rgb(254, 222, 58);"/>
                          </g>
                        </g>
                      </g>
                    </g>
                    <g>
                      <g>
                        <g>
                          <g>
                            <path class="st7" d="M138.553,103.146L138.553,103.146c-0.55,0-0.996-0.446-0.996-0.996v-4.515 c0-0.55,0.446-0.996,0.996-0.996l0,0c0.55,0,0.996,0.446,0.996,0.996v4.515 C139.549,102.7,139.103,103.146,138.553,103.146z" style="fill: rgb(254, 222, 58);"/>
                          </g>
                        </g>
                      </g>
                    </g>
                    <g>
                      <g>
                        <g>
                          <g>
                            <path class="st8" d="M138.553,101.462c-0.55,0-0.996-0.446-0.996-0.996v1.684c0,0.55,0.446,0.996,0.996,0.996 s0.996-0.446,0.996-0.996v-1.684C139.549,101.016,139.103,101.462,138.553,101.462z" style="fill: rgb(247, 203, 21);"/>
                          </g>
                        </g>
                      </g>
                    </g>
                    <g>
                      <g>
                        <g>
                          <g>
                            <path class="st7" d="M142.973,103.146L142.973,103.146c-0.55,0-0.996-0.446-0.996-0.996v-4.515 c0-0.55,0.446-0.996,0.996-0.996l0,0c0.55,0,0.996,0.446,0.996,0.996v4.515 C143.969,102.7,143.523,103.146,142.973,103.146z" style="fill: rgb(254, 222, 58);"/>
                          </g>
                        </g>
                      </g>
                    </g>
                    <g>
                      <g>
                        <g>
                          <g>
                            <path class="st7" d="M147.393,103.146L147.393,103.146c-0.55,0-0.996-0.446-0.996-0.996v-4.515 c0-0.55,0.446-0.996,0.996-0.996l0,0c0.55,0,0.996,0.446,0.996,0.996v4.515 C148.389,102.7,147.943,103.146,147.393,103.146z" style="fill: rgb(254, 222, 58);"/>
                          </g>
                        </g>
                      </g>
                    </g>
                    <g>
                      <g>
                        <g>
                          <g>
                            <path class="st8" d="M142.973,101.462c-0.55,0-0.996-0.446-0.996-0.996v1.684c0,0.55,0.446,0.996,0.996,0.996 c0.55,0,0.996-0.446,0.996-0.996v-1.684C143.969,101.016,143.523,101.462,142.973,101.462z" style="fill: rgb(247, 203, 21);"/>
                          </g>
                        </g>
                      </g>
                    </g>
                    <g>
                      <g>
                        <g>
                          <g>
                            <path class="st8" d="M147.393,101.462c-0.55,0-0.996-0.446-0.996-0.996v1.684c0,0.55,0.446,0.996,0.996,0.996 c0.55,0,0.996-0.446,0.996-0.996v-1.684C148.389,101.016,147.943,101.462,147.393,101.462z" style="fill: rgb(247, 203, 21);"/>
                          </g>
                        </g>
                      </g>
                    </g>
                  </g>
                </g>
                <g>
                  <g>
                    <g>
                      <g>
                        <g>
                          <path class="st5" d="M150.521,130.613h-45.042c-1.86,0-3.368-1.508-3.368-3.368v-11.576 c0-1.86,1.508-3.368,3.368-3.368h45.042c1.86,0,3.368,1.508,3.368,3.368v11.576 C153.889,129.105,152.381,130.613,150.521,130.613z" style="fill: rgb(28, 174, 228);"/>
                        </g>
                      </g>
                    </g>
                  </g>
                  <g>
                    <g>
                      <g>
                        <g>
                          <path class="st6" d="M150.521,128.087h-45.042c-1.86,0-3.368-1.508-3.368-3.368v2.526c0,1.86,1.508,3.368,3.368,3.368 h45.042c1.86,0,3.368-1.508,3.368-3.368v-2.526C153.889,126.579,152.381,128.087,150.521,128.087z" style="fill: rgb(0, 154, 221);"/>
                        </g>
                      </g>
                    </g>
                  </g>
                  <g>
                    <g>
                      <g>
                        <g>
                          <circle class="st7" cx="112.319" cy="121.457" r="3.262" style="fill: rgb(254, 222, 58);"/>
                        </g>
                      </g>
                    </g>
                  </g>
                  <g>
                    <g>
                      <g>
                        <g>
                          <g>
                            <path class="st7" d="M138.553,124.71L138.553,124.71c-0.55,0-0.996-0.446-0.996-0.996V119.2 c0-0.55,0.446-0.996,0.996-0.996l0,0c0.55,0,0.996,0.446,0.996,0.996v4.515 C139.549,124.265,139.103,124.71,138.553,124.71z" style="fill: rgb(254, 222, 58);"/>
                          </g>
                        </g>
                      </g>
                    </g>
                    <g>
                      <g>
                        <g>
                          <g>
                            <path class="st7" d="M142.973,124.71L142.973,124.71c-0.55,0-0.996-0.446-0.996-0.996V119.2 c0-0.55,0.446-0.996,0.996-0.996l0,0c0.55,0,0.996,0.446,0.996,0.996v4.515 C143.969,124.265,143.523,124.71,142.973,124.71z" style="fill: rgb(254, 222, 58);"/>
                          </g>
                        </g>
                      </g>
                    </g>
                    <g>
                      <g>
                        <g>
                          <g>
                            <path class="st7" d="M147.393,124.71L147.393,124.71c-0.55,0-0.996-0.446-0.996-0.996V119.2 c0-0.55,0.446-0.996,0.996-0.996l0,0c0.55,0,0.996,0.446,0.996,0.996v4.515 C148.389,124.265,147.943,124.71,147.393,124.71z" style="fill: rgb(254, 222, 58);"/>
                          </g>
                        </g>
                      </g>
                    </g>
                  </g>
                </g>
                <g>
                  <g>
                    <g>
                      <g>
                        <g>
                          <path class="st5" d="M150.521,152.187h-45.042c-1.86,0-3.368-1.508-3.368-3.368v-11.576 c0-1.86,1.508-3.368,3.368-3.368h45.042c1.86,0,3.368,1.508,3.368,3.368v11.576 C153.889,150.679,152.381,152.187,150.521,152.187z" style="fill: rgb(28, 174, 228);"/>
                        </g>
                      </g>
                    </g>
                  </g>
                  <g>
                    <g>
                      <g>
                        <g>
                          <path class="st6" d="M150.521,149.661h-45.042c-1.86,0-3.368-1.508-3.368-3.368v2.526c0,1.86,1.508,3.368,3.368,3.368 h45.042c1.86,0,3.368-1.508,3.368-3.368v-2.526C153.889,148.154,152.381,149.661,150.521,149.661z" style="fill: rgb(0, 154, 221);"/>
                        </g>
                      </g>
                    </g>
                  </g>
                  <g>
                    <g>
                      <g>
                        <g>
                          <path class="st7" d="M115.582,143.031c0,1.802-1.461,3.262-3.262,3.262c-1.802,0-3.262-1.461-3.262-3.262 c0-1.802,1.461-3.262,3.262-3.262C114.121,139.769,115.582,141.229,115.582,143.031z" style="fill: rgb(254, 222, 58);"/>
                        </g>
                      </g>
                    </g>
                  </g>
                  <g>
                    <g>
                      <g>
                        <g>
                          <g>
                            <path class="st7" d="M138.553,146.275L138.553,146.275c-0.55,0-0.996-0.446-0.996-0.996v-4.515 c0-0.55,0.446-0.996,0.996-0.996l0,0c0.55,0,0.996,0.446,0.996,0.996v4.515 C139.549,145.829,139.103,146.275,138.553,146.275z" style="fill: rgb(254, 222, 58);"/>
                          </g>
                        </g>
                      </g>
                    </g>
                    <g>
                      <g>
                        <g>
                          <g>
                            <path class="st7" d="M142.973,146.275L142.973,146.275c-0.55,0-0.996-0.446-0.996-0.996v-4.515 c0-0.55,0.446-0.996,0.996-0.996l0,0c0.55,0,0.996,0.446,0.996,0.996v4.515 C143.969,145.829,143.523,146.275,142.973,146.275z" style="fill: rgb(254, 222, 58);"/>
                          </g>
                        </g>
                      </g>
                    </g>
                    <g>
                      <g>
                        <g>
                          <g>
                            <path class="st7" d="M147.393,146.275L147.393,146.275c-0.55,0-0.996-0.446-0.996-0.996v-4.515 c0-0.55,0.446-0.996,0.996-0.996l0,0c0.55,0,0.996,0.446,0.996,0.996v4.515 C148.389,145.829,147.943,146.275,147.393,146.275z" style="fill: rgb(254, 222, 58);"/>
                          </g>
                        </g>
                      </g>
                    </g>
                  </g>
                </g>
              </g>
            </g>
            <g>
              <g>
                <g>
                  <g>
                    <path class="st8" d="M112.319,123.083c-1.509,0-2.766-1.03-3.139-2.421c-0.072,0.27-0.123,0.549-0.123,0.842 c0,1.802,1.461,3.262,3.262,3.262c1.802,0,3.262-1.461,3.262-3.262c0-0.293-0.051-0.572-0.124-0.842 C115.085,122.053,113.828,123.083,112.319,123.083z" style="fill: rgb(247, 203, 21);"/>
                  </g>
                </g>
              </g>
            </g>
            <g>
              <g>
                <g>
                  <g>
                    <path class="st8" d="M138.553,123.083c-0.55,0-0.996-0.446-0.996-0.996v1.684c0,0.55,0.446,0.996,0.996,0.996 s0.996-0.446,0.996-0.996v-1.684C139.549,122.637,139.103,123.083,138.553,123.083z" style="fill: rgb(247, 203, 21);"/>
                  </g>
                </g>
              </g>
            </g>
            <g>
              <g>
                <g>
                  <g>
                    <path class="st8" d="M142.973,123.083c-0.55,0-0.996-0.446-0.996-0.996v1.684c0,0.55,0.446,0.996,0.996,0.996 c0.55,0,0.996-0.446,0.996-0.996v-1.684C143.969,122.637,143.523,123.083,142.973,123.083z" style="fill: rgb(247, 203, 21);"/>
                  </g>
                </g>
              </g>
            </g>
            <g>
              <g>
                <g>
                  <g>
                    <path class="st8" d="M147.393,123.083c-0.55,0-0.996-0.446-0.996-0.996v1.684c0,0.55,0.446,0.996,0.996,0.996 c0.55,0,0.996-0.446,0.996-0.996v-1.684C148.389,122.637,147.943,123.083,147.393,123.083z" style="fill: rgb(247, 203, 21);"/>
                  </g>
                </g>
              </g>
            </g>
            <g>
              <g>
                <g>
                  <g>
                    <path class="st8" d="M112.319,144.592c-1.509,0-2.766-1.03-3.139-2.421c-0.072,0.27-0.123,0.549-0.123,0.842 c0,1.802,1.461,3.263,3.262,3.263c1.802,0,3.262-1.461,3.262-3.263c0-0.293-0.051-0.572-0.124-0.842 C115.085,143.562,113.828,144.592,112.319,144.592z" style="fill: rgb(247, 203, 21);"/>
                  </g>
                </g>
              </g>
            </g>
            <g>
              <g>
                <g>
                  <g>
                    <path class="st8" d="M138.553,144.592c-0.55,0-0.996-0.446-0.996-0.996v1.684c0,0.55,0.446,0.996,0.996,0.996 s0.996-0.446,0.996-0.996v-1.684C139.549,144.146,139.103,144.592,138.553,144.592z" style="fill: rgb(247, 203, 21);"/>
                  </g>
                </g>
              </g>
            </g>
            <g>
              <g>
                <g>
                  <g>
                    <path class="st8" d="M142.973,144.592c-0.55,0-0.996-0.446-0.996-0.996v1.684c0,0.55,0.446,0.996,0.996,0.996 c0.55,0,0.996-0.446,0.996-0.996v-1.684C143.969,144.146,143.523,144.592,142.973,144.592z" style="fill: rgb(247, 203, 21);"/>
                  </g>
                </g>
              </g>
            </g>
            <g>
              <g>
                <g>
                  <g>
                    <path class="st8" d="M147.393,144.592c-0.55,0-0.996-0.446-0.996-0.996v1.684c0,0.55,0.446,0.996,0.996,0.996 c0.55,0,0.996-0.446,0.996-0.996v-1.684C148.389,144.146,147.943,144.592,147.393,144.592z" style="fill: rgb(247, 203, 21);"/>
                  </g>
                </g>
              </g>
            </g>
          </g>
        </g>
        <path class="st3" d="M181.254,100.192l-8.161,8.161l0,0l-2.888,2.888v6.131c0,11.905-3.021,23.317-8.468,33.353l21.298-21.299 l3.21-3.21c0.655-4.572,0.994-9.226,0.994-13.935v-14.65C185.067,97.687,182.911,98.534,181.254,100.192z" style="fill: rgb(209, 211, 212);"/>
        <g>
          <g>
            <path class="st9" d="M146.358,160.839l-16.936,5.454c-1.701,0.548-3.308-1.059-2.76-2.76l5.454-16.936 c0.395-1.227,1.077-2.343,1.989-3.255l47.15-47.15c3.426-3.426,8.981-3.426,12.407,0l3.102,3.102 c3.426,3.426,3.426,8.981,0,12.407l-47.15,47.15C148.701,159.762,147.585,160.443,146.358,160.839z" style="fill: rgb(239, 90, 157);"/>
          </g>
          <g>
            <path class="st10" d="M143.029,157.51l-14.253,8.138c-1.431,0.817-2.287-0.039-1.47-1.47l8.138-14.253 c0.59-1.033,1.373-2.047,2.285-2.959l47.15-47.15c3.426-3.426,7.683-4.724,9.507-2.9l1.652,1.652 c1.825,1.825,0.526,6.081-2.9,9.507l-47.15,47.15C145.076,156.137,144.062,156.92,143.029,157.51z" style="fill: rgb(240, 110, 169);"/>
          </g>
          <g>
            <rect x="167.098" y="110.954" transform="matrix(0.7071 0.7071 -0.7071 0.7071 133.3939 -92.2603)" class="st8" width="21.932" height="7.872" style="fill: rgb(247, 203, 21);"/>
          </g>
          <g>
            <path class="st11" d="M134.311,143.135l-0.207,0.207c-0.912,0.912-1.594,2.027-1.989,3.255l-5.454,16.936 c-0.548,1.701,1.059,3.307,2.76,2.76l16.937-5.454c1.227-0.395,2.343-1.077,3.255-1.989l0.207-0.207L134.311,143.135z" style="fill: rgb(231, 173, 39);"/>
          </g>
          <g>
            <path class="st8" d="M137.936,146.759l-0.207,0.207c-0.912,0.912-1.695,1.926-2.285,2.959l-8.138,14.253 c-0.408,0.715-0.399,1.286-0.109,1.577c0.001,0.001,0.001,0.001,0.002,0.002c0.291,0.29,0.862,0.299,1.577-0.109l14.253-8.138 c1.033-0.59,2.047-1.373,2.959-2.285l0.207-0.207L137.936,146.759z" style="fill: rgb(247, 203, 21);"/>
          </g>
          <g>
            <path class="st9" d="M128.333,158.343l-1.671,5.19c-0.548,1.701,1.059,3.307,2.76,2.76l5.19-1.671L128.333,158.343z" style="fill: rgb(239, 90, 157);"/>
          </g>
        </g>
      </g>
    </g>
  </g>
  <path d="M 194.245 161.701 Q 196.245 161.401 198.895 161.251 Q 201.545 161.101 204.395 161.001 Q 207.245 160.901 209.995 160.851 Q 212.745 160.801 215.045 160.801 Q 224.245 160.801 230.995 163.451 Q 237.745 166.101 242.195 170.801 Q 246.645 175.501 248.845 182.001 Q 251.045 188.501 251.045 196.201 Q 251.045 203.201 248.995 209.751 Q 246.945 216.301 242.445 221.401 Q 237.945 226.501 230.895 229.601 Q 223.845 232.701 213.845 232.701 Q 212.145 232.701 209.295 232.601 Q 206.445 232.501 203.445 232.401 Q 200.445 232.301 197.895 232.151 Q 195.345 232.001 194.245 231.801 Z M 215.345 169.601 Q 213.945 169.601 212.345 169.601 Q 210.745 169.601 209.145 169.701 Q 207.545 169.801 206.245 169.901 Q 204.945 170.001 204.245 170.101 L 204.245 223.501 Q 204.745 223.601 206.195 223.651 Q 207.645 223.701 209.245 223.751 Q 210.845 223.801 212.245 223.851 Q 213.645 223.901 214.245 223.901 Q 221.745 223.901 226.795 221.551 Q 231.845 219.201 234.895 215.301 Q 237.945 211.401 239.195 206.451 Q 240.445 201.501 240.445 196.201 Q 240.445 191.701 239.245 187.001 Q 238.045 182.301 235.145 178.451 Q 232.245 174.601 227.445 172.101 Q 222.645 169.601 215.345 169.601 Z M 251.738 205.501 Q 251.738 199.001 253.438 193.851 Q 255.138 188.701 258.438 185.101 Q 261.738 181.501 266.488 179.601 Q 271.238 177.701 277.338 177.701 Q 283.738 177.701 288.538 179.801 Q 293.338 181.901 296.538 185.651 Q 299.738 189.401 301.288 194.451 Q 302.838 199.501 302.838 205.501 Q 302.838 211.901 301.088 217.001 Q 299.338 222.101 296.088 225.701 Q 292.838 229.301 288.088 231.201 Q 283.338 233.101 277.338 233.101 Q 270.738 233.101 265.938 231.001 Q 261.138 228.901 257.988 225.201 Q 254.838 221.501 253.288 216.451 Q 251.738 211.401 251.738 205.501 Z M 261.538 205.501 Q 261.538 209.201 262.388 212.751 Q 263.238 216.301 265.138 219.101 Q 267.038 221.901 270.038 223.601 Q 273.038 225.301 277.438 225.301 Q 293.038 225.301 293.038 205.501 Q 293.038 201.601 292.188 198.001 Q 291.338 194.401 289.488 191.651 Q 287.638 188.901 284.638 187.201 Q 281.638 185.501 277.438 185.501 Q 269.638 185.501 265.588 190.451 Q 261.538 195.401 261.538 205.501 Z M 340.532 231.701 L 340.532 202.901 Q 340.532 198.701 340.132 195.501 Q 339.732 192.301 338.532 190.151 Q 337.332 188.001 335.182 186.951 Q 333.032 185.901 329.632 185.901 Q 324.332 185.901 320.782 188.851 Q 317.232 191.801 315.732 196.401 L 315.732 231.701 L 306.532 231.701 L 306.532 179.201 L 312.832 179.201 L 314.632 186.201 L 315.632 186.201 Q 318.832 182.601 322.982 180.151 Q 327.132 177.701 333.532 177.701 Q 338.932 177.701 342.582 180.001 Q 346.232 182.301 348.132 187.701 Q 351.132 183.101 355.732 180.401 Q 360.332 177.701 366.032 177.701 Q 370.832 177.701 374.182 178.801 Q 377.532 179.901 379.632 182.601 Q 381.732 185.301 382.732 189.901 Q 383.732 194.501 383.732 201.501 L 383.732 231.701 L 374.532 231.701 L 374.532 201.501 Q 374.532 197.501 374.082 194.601 Q 373.632 191.701 372.432 189.751 Q 371.232 187.801 369.082 186.851 Q 366.932 185.901 363.432 185.901 Q 357.732 185.901 354.432 188.901 Q 351.132 191.901 349.732 197.901 L 349.732 231.701 Z M 389.626 182.501 Q 398.626 178.201 411.926 178.201 Q 417.926 178.201 421.576 179.751 Q 425.226 181.301 427.226 183.701 Q 429.226 186.101 429.876 189.051 Q 430.526 192.001 430.526 194.901 Q 430.526 200.401 430.126 205.951 Q 429.726 211.501 429.726 218.001 Q 429.726 221.801 430.076 225.351 Q 430.426 228.901 431.226 231.901 L 424.526 231.901 L 422.026 223.901 L 421.026 223.901 Q 419.926 225.401 418.326 226.951 Q 416.726 228.501 414.526 229.701 Q 412.326 230.901 409.476 231.701 Q 406.626 232.501 402.926 232.501 Q 399.226 232.501 396.126 231.451 Q 393.026 230.401 390.776 228.501 Q 388.526 226.601 387.226 223.851 Q 385.926 221.101 385.926 217.701 Q 385.926 213.201 387.876 209.901 Q 389.826 206.601 392.926 204.501 Q 396.026 202.401 399.976 201.401 Q 403.926 200.401 407.826 200.401 Q 410.926 200.401 413.076 200.501 Q 415.226 200.601 416.676 200.751 Q 418.126 200.901 419.126 201.051 Q 420.126 201.201 420.926 201.301 Q 421.126 199.801 421.226 198.701 Q 421.326 197.601 421.326 195.901 Q 421.326 193.101 420.726 191.201 Q 420.126 189.301 418.776 188.151 Q 417.426 187.001 415.126 186.501 Q 412.826 186.001 409.526 186.001 Q 407.626 186.001 405.326 186.301 Q 403.026 186.601 400.726 187.151 Q 398.426 187.701 396.176 188.501 Q 393.926 189.301 392.126 190.201 Z M 420.926 207.901 Q 420.126 207.801 419.226 207.601 Q 418.326 207.401 416.976 207.301 Q 415.626 207.201 413.776 207.101 Q 411.926 207.001 409.226 207.001 Q 403.026 207.001 399.376 209.201 Q 395.726 211.401 395.726 216.701 Q 395.726 220.701 398.576 222.701 Q 401.426 224.701 405.926 224.701 Q 409.226 224.701 411.776 223.851 Q 414.326 223.001 416.176 221.751 Q 418.026 220.501 419.176 218.951 Q 420.326 217.401 420.926 215.901 Z M 439.919 179.201 L 449.119 179.201 L 449.119 231.701 L 439.919 231.701 Z M 438.019 166.701 Q 438.019 164.401 439.819 162.551 Q 441.619 160.701 444.519 160.701 Q 447.419 160.701 449.319 162.551 Q 451.219 164.401 451.219 166.701 Q 451.219 169.001 449.319 170.751 Q 447.419 172.501 444.519 172.501 Q 441.619 172.501 439.819 170.751 Q 438.019 169.001 438.019 166.701 Z M 495.206 231.701 L 495.206 202.701 Q 495.206 194.301 492.506 190.101 Q 489.806 185.901 482.906 185.901 Q 476.806 185.901 472.756 189.051 Q 468.706 192.201 467.106 197.101 L 467.106 231.701 L 457.906 231.701 L 457.906 179.201 L 464.306 179.201 L 466.106 186.201 L 467.006 186.201 Q 469.906 182.601 474.556 180.151 Q 479.206 177.701 485.706 177.701 Q 490.306 177.701 493.806 178.751 Q 497.306 179.801 499.656 182.451 Q 502.006 185.101 503.206 189.551 Q 504.406 194.001 504.406 200.801 L 504.406 231.701 Z" transform="matrix(0.428846, 0, 0, 0.428846, 164.4729, 54.39043)" style="fill: rgb(51, 51, 51); opacity: 0.9; text-decoration: underline solid rgba(0, 0, 0, 0.85);"/>
  <path transform="matrix(0.428846, 0, 0, 0.428846, 164.4729, 54.39043)" style="fill: rgb(51, 51, 51); opacity: 0.9; text-decoration: underline solid rgba(0, 0, 0, 0.85);"/>
  <path d="M 194.245 261.701 Q 196.245 261.401 198.895 261.251 Q 201.545 261.101 204.395 261.001 Q 207.245 260.901 209.995 260.851 Q 212.745 260.801 215.045 260.801 Q 224.245 260.801 230.995 263.451 Q 237.745 266.101 242.195 270.801 Q 246.645 275.501 248.845 282.001 Q 251.045 288.501 251.045 296.201 Q 251.045 303.201 248.995 309.751 Q 246.945 316.301 242.445 321.401 Q 237.945 326.501 230.895 329.601 Q 223.845 332.701 213.845 332.701 Q 212.145 332.701 209.295 332.601 Q 206.445 332.501 203.445 332.401 Q 200.445 332.301 197.895 332.151 Q 195.345 332.001 194.245 331.801 Z M 215.345 269.601 Q 213.945 269.601 212.345 269.601 Q 210.745 269.601 209.145 269.701 Q 207.545 269.801 206.245 269.901 Q 204.945 270.001 204.245 270.101 L 204.245 323.501 Q 204.745 323.601 206.195 323.651 Q 207.645 323.701 209.245 323.751 Q 210.845 323.801 212.245 323.851 Q 213.645 323.901 214.245 323.901 Q 221.745 323.901 226.795 321.551 Q 231.845 319.201 234.895 315.301 Q 237.945 311.401 239.195 306.451 Q 240.445 301.501 240.445 296.201 Q 240.445 291.701 239.245 287.001 Q 238.045 282.301 235.145 278.451 Q 232.245 274.601 227.445 272.101 Q 222.645 269.601 215.345 269.601 Z M 297.238 327.401 Q 293.738 330.001 288.538 331.551 Q 283.338 333.101 277.238 333.101 Q 270.638 333.101 265.788 331.151 Q 260.938 329.201 257.838 325.601 Q 254.738 322.001 253.238 316.901 Q 251.738 311.801 251.738 305.501 Q 251.738 292.001 258.388 284.851 Q 265.038 277.701 277.338 277.701 Q 281.238 277.701 285.138 278.551 Q 289.038 279.401 292.138 281.751 Q 295.238 284.101 297.188 288.201 Q 299.138 292.301 299.138 298.901 Q 299.138 300.501 299.038 302.601 Q 298.938 304.701 298.638 306.701 L 261.138 306.701 Q 261.338 315.901 265.538 320.601 Q 269.738 325.301 279.838 325.301 Q 284.038 325.301 287.838 323.851 Q 291.638 322.401 293.738 320.401 Z M 290.338 300.101 Q 290.538 292.101 287.088 288.801 Q 283.638 285.501 277.438 285.501 Q 270.438 285.501 266.338 288.801 Q 262.238 292.101 261.538 300.101 Z M 329.735 317.001 Q 329.735 315.001 328.785 313.651 Q 327.835 312.301 326.235 311.351 Q 324.635 310.401 322.535 309.701 Q 320.435 309.001 318.135 308.301 Q 315.235 307.501 312.285 306.551 Q 309.335 305.601 306.985 303.951 Q 304.635 302.301 303.135 299.701 Q 301.635 297.101 301.635 293.101 Q 301.635 285.301 306.285 281.501 Q 310.935 277.701 319.335 277.701 Q 325.635 277.701 329.935 278.901 Q 334.235 280.101 337.435 281.501 L 335.235 289.301 Q 332.535 288.001 328.785 286.751 Q 325.035 285.501 320.535 285.501 Q 315.635 285.501 313.235 287.101 Q 310.835 288.701 310.835 292.901 Q 310.835 294.601 311.735 295.751 Q 312.635 296.901 314.135 297.751 Q 315.635 298.601 317.635 299.251 Q 319.635 299.901 321.835 300.501 Q 324.835 301.301 327.835 302.351 Q 330.835 303.401 333.335 305.151 Q 335.835 306.901 337.385 309.601 Q 338.935 312.301 338.935 316.401 Q 338.935 323.801 333.935 328.451 Q 328.935 333.101 318.935 333.101 Q 312.535 333.101 307.785 331.801 Q 303.035 330.501 299.835 328.801 L 302.435 320.801 Q 305.235 322.301 309.635 323.801 Q 314.035 325.301 318.535 325.301 Q 323.435 325.301 326.585 323.551 Q 329.735 321.801 329.735 317.001 Z M 344.621 279.201 L 353.821 279.201 L 353.821 331.701 L 344.621 331.701 Z M 342.721 266.701 Q 342.721 264.401 344.521 262.551 Q 346.321 260.701 349.221 260.701 Q 352.121 260.701 354.021 262.551 Q 355.921 264.401 355.921 266.701 Q 355.921 269.001 354.021 270.751 Q 352.121 272.501 349.221 272.501 Q 346.321 272.501 344.521 270.751 Q 342.721 269.001 342.721 266.701 Z M 407.525 332.001 Q 407.525 342.301 401.475 347.351 Q 395.425 352.401 383.725 352.401 Q 376.925 352.401 372.725 351.601 Q 368.525 350.801 365.525 349.401 L 367.725 341.101 Q 369.025 341.701 370.725 342.351 Q 372.425 343.001 374.325 343.501 Q 376.225 344.001 378.175 344.301 Q 380.125 344.601 381.925 344.601 Q 386.825 344.601 390.025 343.751 Q 393.225 342.901 395.125 341.101 Q 397.025 339.301 397.725 336.501 Q 398.425 333.701 398.425 329.801 L 398.425 326.101 L 397.325 326.101 Q 395.725 328.701 391.725 330.301 Q 387.725 331.901 382.025 331.901 Q 370.625 331.901 365.225 325.751 Q 359.825 319.601 359.825 305.901 Q 359.825 292.401 366.825 285.101 Q 373.825 277.801 387.625 277.801 Q 394.225 277.801 398.975 278.601 Q 403.725 279.401 407.525 280.701 Z M 384.025 324.101 Q 390.125 324.101 393.575 321.001 Q 397.025 317.901 398.325 312.901 L 398.325 287.101 Q 396.025 286.401 393.025 286.001 Q 390.025 285.601 386.225 285.601 Q 378.425 285.601 374.025 290.551 Q 369.625 295.501 369.625 305.701 Q 369.625 314.501 372.875 319.301 Q 376.125 324.101 384.025 324.101 Z M 451.519 331.701 L 451.519 302.701 Q 451.519 294.301 448.819 290.101 Q 446.119 285.901 439.219 285.901 Q 433.119 285.901 429.069 289.051 Q 425.019 292.201 423.419 297.101 L 423.419 331.701 L 414.219 331.701 L 414.219 279.201 L 420.619 279.201 L 422.419 286.201 L 423.319 286.201 Q 426.219 282.601 430.869 280.151 Q 435.519 277.701 442.019 277.701 Q 446.619 277.701 450.119 278.751 Q 453.619 279.801 455.969 282.451 Q 458.319 285.101 459.519 289.551 Q 460.719 294.001 460.719 300.801 L 460.719 331.701 Z M 509.915 327.401 Q 506.415 330.001 501.215 331.551 Q 496.015 333.101 489.915 333.101 Q 483.315 333.101 478.465 331.151 Q 473.615 329.201 470.515 325.601 Q 467.415 322.001 465.915 316.901 Q 464.415 311.801 464.415 305.501 Q 464.415 292.001 471.065 284.851 Q 477.715 277.701 490.015 277.701 Q 493.915 277.701 497.815 278.551 Q 501.715 279.401 504.815 281.751 Q 507.915 284.101 509.865 288.201 Q 511.815 292.301 511.815 298.901 Q 511.815 300.501 511.715 302.601 Q 511.615 304.701 511.315 306.701 L 473.815 306.701 Q 474.015 315.901 478.215 320.601 Q 482.415 325.301 492.515 325.301 Q 496.715 325.301 500.515 323.851 Q 504.315 322.401 506.415 320.401 Z M 503.015 300.101 Q 503.215 292.101 499.765 288.801 Q 496.315 285.501 490.115 285.501 Q 483.115 285.501 479.015 288.801 Q 474.915 292.101 474.215 300.101 Z M 543.312 287.901 Q 541.612 287.401 540.012 287.001 Q 538.412 286.601 537.012 286.601 Q 531.712 286.601 528.762 289.301 Q 525.812 292.001 525.112 296.101 L 525.112 331.701 L 515.912 331.701 L 515.912 279.201 L 522.312 279.201 L 524.112 286.201 L 525.012 286.201 Q 527.312 282.301 530.362 280.151 Q 533.412 278.001 538.012 278.001 Q 539.412 278.001 541.312 278.251 Q 543.212 278.501 545.112 279.101 Z" transform="matrix(0.428846, 0, 0, 0.428846, 164.4729, 54.39043)" style="fill: rgb(51, 51, 51); opacity: 0.9; text-decoration: underline solid rgba(0, 0, 0, 0.85);"/>
</svg>