<?xml version="1.0" encoding="utf-8"?>
<svg viewBox="148.8483 6.3878 1617.7698 330.3632" width="1617.7698" height="330.3632" xmlns="http://www.w3.org/2000/svg">
  <path style="fill: rgb(87, 85, 92); transform-origin: 262.483px 122.505px;" d="M 216.095 104.283 L 308.871 104.283 L 308.871 140.728 L 216.095 140.728 L 216.095 104.283 Z" transform="matrix(-0.707094013691, -0.707119107246, 0.707119107246, -0.707094013691, -0.000012905977, -0.000006390378)"/>
  <path style="fill: rgb(60, 58, 65);" d="M 308.17 142.419 L 278.803 113.052 C 265.745 115.688 255.673 126.523 254.158 139.953 L 282.397 168.191 L 308.17 142.419 Z" transform="matrix(1, 0, 0, 1, 1.4210854715202004e-14, 0)"/>
  <path style="fill: rgb(87, 85, 92);" d="M 364.15 188.074 L 438.283 168.474 L 428.849 133.268 L 354.716 152.868 L 364.15 188.074 Z" transform="matrix(1, 0, 0, 1, 1.4210854715202004e-14, 0)"/>
  <path style="fill: rgb(60, 58, 65);" d="M 354.716 152.868 L 364.15 188.074 L 405.96 177.02 C 406.004 176.097 406.03 175.171 406.03 174.237 C 406.03 162.263 402.39 151.139 396.155 141.913 L 354.716 152.868 Z" transform="matrix(1, 0, 0, 1, 1.4210854715202004e-14, 0)"/>
  <path style="fill: rgb(87, 85, 92); transform-origin: 270.089px 249.784px;" d="M 223.396 231.561 L 316.783 231.561 L 316.783 268.006 L 223.396 268.006 L 223.396 231.561 Z" transform="matrix(-0.589900910854, 0.807475090027, -0.807475090027, -0.589900910854, 0.000066259359, -0.000038607608)"/>
  <path style="fill: rgb(60, 58, 65);" d="M 312.351 222.828 L 287.853 256.365 C 274.546 255.77 262.925 246.614 259.363 233.577 L 282.919 201.33 L 312.351 222.828 Z" transform="matrix(1, 0, 0, 1, 1.4210854715202004e-14, 0)"/>
  <circle style="fill: rgb(0, 216, 222);" cx="323.798" cy="181.444" r="57.807" transform="matrix(1, 0, 0, 1, 1.4210854715202004e-14, 0)"/>
  <path style="fill: rgb(0, 182, 190);" d="M 364.675 201.23 C 342.1 223.805 305.5 223.805 282.925 201.23 C 274.331 192.637 269.019 182.009 266.967 170.898 C 263.63 188.975 268.943 208.336 282.925 222.317 C 305.5 244.892 342.101 244.892 364.675 222.317 C 378.657 208.336 383.969 188.975 380.633 170.898 C 378.581 182.009 373.268 192.637 364.675 201.23 Z" transform="matrix(1, 0, 0, 1, 1.4210854715202004e-14, 0)"/>
  <circle style="fill: rgb(255, 4, 53);" cx="208.149" cy="65.792" r="53.781" transform="matrix(1, 0, 0, 1, 1.4210854715202004e-14, 0)"/>
  <path style="fill: rgb(230, 0, 32);" d="M 246.176 84.201 C 225.174 105.203 191.124 105.203 170.122 84.201 C 162.127 76.207 157.185 66.32 155.277 55.982 C 152.173 72.8 157.115 90.811 170.122 103.819 C 191.124 124.82 225.174 124.82 246.176 103.819 C 259.184 90.812 264.126 72.801 261.021 55.982 C 259.113 66.319 254.171 76.207 246.176 84.201 Z" transform="matrix(1, 0, 0, 1, 1.4210854715202004e-14, 0)"/>
  <circle style="fill: rgb(0, 216, 222);" cx="232.244" cy="300.455" r="30.753" transform="matrix(1, 0, 0, 1, 1.4210854715202004e-14, 0)"/>
  <path style="fill: rgb(0, 182, 190);" d="M 253.898 305.75 C 241.666 317.534 222.198 317.171 210.414 304.94 C 206.777 301.175 204.168 296.539 202.834 291.477 C 199.694 301.799 202.083 313.469 210.1 321.79 C 221.884 334.022 241.352 334.384 253.584 322.6 C 261.905 314.583 264.727 303.011 261.974 292.579 C 260.453 297.588 257.672 302.123 253.898 305.75 Z" transform="matrix(1, 0, 0, 1, 1.4210854715202004e-14, 0)"/>
  <circle style="fill: rgb(255, 4, 53);" cx="460.88" cy="144.91" r="45.699" transform="matrix(1, 0, 0, 1, 1.4210854715202004e-14, 0)"/>
  <path style="fill: rgb(230, 0, 32);" d="M 493.199 157.806 C 475.352 175.654 446.413 175.654 428.565 157.806 C 422.362 151.617 418.079 143.767 416.23 135.201 C 413.052 149.88 417.155 165.819 428.565 177.229 C 446.413 195.077 475.352 195.077 493.199 177.229 C 504.609 165.819 508.712 149.88 505.534 135.201 C 503.686 143.767 499.403 151.617 493.199 157.806 Z" transform="matrix(1, 0, 0, 1, 1.4210854715202004e-14, 0)"/>
  <path d="M 200.791 219.114 C 203.863 219.114 206.353 216.624 206.353 213.553 L 206.353 210.633 L 209.272 210.633 C 213.553 210.633 216.229 205.999 214.088 202.291 C 213.095 200.57 211.259 199.51 209.272 199.51 L 206.353 199.51 L 206.353 196.592 C 206.353 192.31 201.719 189.634 198.011 191.775 C 196.29 192.769 195.23 194.605 195.23 196.592 L 195.23 199.51 L 192.311 199.51 C 188.031 199.51 185.355 204.145 187.496 207.853 C 188.489 209.573 190.325 210.633 192.311 210.633 L 195.23 210.633 L 195.23 213.553 C 195.23 216.625 197.72 219.114 200.791 219.114 Z M 404.979 294.443 L 402.06 294.443 L 402.06 291.524 C 402.061 288.452 399.571 285.963 396.499 285.963 C 393.427 285.963 390.937 288.452 390.937 291.524 L 390.937 294.443 L 388.019 294.443 C 384.947 294.443 382.457 296.932 382.457 300.004 C 382.457 303.077 384.946 305.566 388.019 305.566 L 390.937 305.566 L 390.937 308.484 C 390.937 311.556 393.427 314.047 396.499 314.046 C 399.571 314.047 402.061 311.556 402.06 308.484 L 402.06 305.566 L 404.979 305.566 C 408.05 305.566 410.54 303.077 410.54 300.004 C 410.54 296.932 408.05 294.443 404.979 294.443 Z M 344.232 69.159 L 347.15 69.159 L 347.15 72.078 C 347.15 75.149 349.64 77.64 352.712 77.639 C 355.784 77.64 358.274 75.149 358.274 72.078 L 358.274 69.159 L 361.192 69.159 C 364.264 69.16 366.754 66.669 366.754 63.598 C 366.754 60.526 364.264 58.036 361.192 58.036 L 358.274 58.036 L 358.274 55.117 C 358.274 52.046 355.784 49.556 352.712 49.556 C 349.64 49.556 347.15 52.046 347.15 55.117 L 347.15 58.036 L 344.232 58.036 C 341.16 58.036 338.67 60.526 338.67 63.598 C 338.67 66.669 341.16 69.16 344.232 69.159 Z M 409.202 98.794 C 410.678 98.796 412.093 98.21 413.135 97.165 C 416.711 93.585 420.677 90.417 424.957 87.719 C 428.58 85.437 428.375 80.09 424.588 78.093 C 422.831 77.166 420.712 77.247 419.03 78.305 C 414.048 81.446 409.433 85.134 405.27 89.299 C 403.098 91.471 403.098 94.992 405.27 97.164 C 406.312 98.209 407.727 98.795 409.202 98.794 Z M 208.164 149.618 C 212.384 149.606 216.641 149.291 220.816 148.68 C 223.855 148.234 225.958 145.41 225.513 142.371 C 225.068 139.333 222.244 137.234 219.204 137.674 C 215.539 138.211 211.84 138.485 208.135 138.495 C 203.855 138.548 201.237 143.216 203.424 146.897 C 204.416 148.566 206.208 149.598 208.15 149.617 L 208.164 149.618 Z M 388.325 243.099 C 398.544 232.392 406.006 219.217 409.902 204.999 C 411.008 200.863 407.221 197.081 403.086 198.193 C 401.193 198.701 399.706 200.17 399.175 202.058 C 395.764 214.506 389.23 226.041 380.279 235.419 C 377.325 238.517 378.831 243.652 382.992 244.663 C 383.421 244.767 383.861 244.82 384.302 244.82 C 385.823 244.823 387.278 244.201 388.325 243.099 Z" style="" transform="matrix(1, 0, 0, 1, 1.4210854715202004e-14, 0)"/>
  <path d="M 497.132 108.662 C 477.143 88.675 444.622 88.674 424.632 108.663 C 418.136 115.149 413.511 123.27 411.249 132.168 L 373.538 142.139 C 370.306 138.067 366.588 134.407 362.466 131.238 C 360.034 129.363 356.542 129.817 354.668 132.25 C 352.794 134.683 353.246 138.175 355.679 140.048 C 366.714 148.548 373.788 160.833 375.6 174.641 C 379.349 203.205 359.161 229.493 330.598 233.242 C 302.037 236.997 275.747 216.803 271.997 188.239 C 270.181 174.402 273.862 160.688 282.362 149.619 C 290.862 138.551 303.164 131.455 316.999 129.64 C 322.859 128.862 328.807 129.088 334.59 130.305 C 337.595 130.935 340.546 129.018 341.181 126.012 C 341.814 123.007 339.893 120.056 336.887 119.421 C 329.884 117.943 322.707 117.672 315.552 118.61 C 309.284 119.428 303.171 121.175 297.418 123.796 L 262.707 89.085 C 271.909 67.458 267.719 41.442 250.107 23.83 C 231.716 5.438 203.862 1.129 180.798 13.113 C 178.073 14.528 177.011 17.885 178.427 20.611 C 179.842 23.337 183.2 24.398 185.925 22.982 C 204.664 13.247 227.296 16.748 242.242 31.695 C 261.042 50.495 261.042 81.084 242.242 99.884 C 223.442 118.684 192.853 118.684 174.053 99.884 C 157.927 83.758 155.327 58.264 167.872 39.264 C 170.17 35.651 167.695 30.906 163.417 30.722 C 161.5 30.64 159.675 31.552 158.59 33.135 C 143.148 56.525 146.344 87.904 166.191 107.75 C 177.759 119.318 192.955 125.102 208.15 125.102 C 214.925 125.103 221.649 123.948 228.035 121.689 L 264.752 158.407 C 260.901 168.237 259.561 178.929 260.973 189.687 C 261.992 197.501 264.467 205.056 268.269 211.958 L 230.089 264.229 C 221.746 264.721 213.53 268.062 207.053 274.301 C 192.634 288.193 192.204 311.228 206.096 325.649 L 206.096 325.649 C 213.213 333.036 222.726 336.751 232.254 336.751 C 241.326 336.751 250.41 333.382 257.443 326.606 C 266.706 317.681 270.186 304.987 267.815 293.224 L 305.228 242.008 C 313.9 244.691 323.051 245.463 332.049 244.271 C 361.735 240.374 383.96 216.403 386.852 187.824 L 422.164 178.488 C 422.956 179.408 423.78 180.299 424.634 181.161 C 432.567 189.092 442.617 194.111 453.697 195.672 C 457.95 196.177 461.155 191.889 459.466 187.954 C 458.716 186.207 457.126 184.963 455.249 184.658 C 446.579 183.436 438.712 179.507 432.5 173.295 C 416.849 157.644 416.849 132.178 432.5 116.526 C 448.151 100.875 473.617 100.875 489.269 116.526 C 496.851 124.108 501.027 134.188 501.027 144.91 C 501.027 155.633 496.851 165.713 489.269 173.295 C 485.824 176.751 481.775 179.547 477.323 181.545 C 473.438 183.343 472.955 188.673 476.455 191.139 C 478.041 192.256 480.094 192.467 481.873 191.694 C 487.559 189.145 492.694 185.6 497.134 181.159 C 506.817 171.476 512.149 158.603 512.149 144.91 C 512.149 131.216 506.814 118.346 497.132 108.662 Z M 238.719 116.646 C 242.865 114.157 246.689 111.17 250.108 107.75 C 252.712 105.142 255.067 102.297 257.142 99.251 L 287.422 129.531 C 282.146 133.239 277.466 137.727 273.541 142.844 C 272.283 144.484 271.103 146.183 270.008 147.935 L 238.719 116.646 Z M 249.725 318.596 C 239.722 328.233 223.742 327.936 214.104 317.931 L 214.104 317.932 C 204.466 307.929 204.764 291.948 214.767 282.311 C 224.771 272.674 240.75 272.972 250.387 282.975 C 260.026 292.978 259.728 308.958 249.725 318.596 Z M 262.94 281.039 C 261.626 278.963 260.104 277.026 258.398 275.257 C 254.098 270.786 248.717 267.5 242.776 265.714 L 274.913 221.716 C 280.354 228.295 287.059 233.716 294.63 237.657 L 262.94 281.039 Z M 386.957 176.291 C 386.873 175.257 386.763 174.225 386.629 173.195 C 385.663 165.775 383.389 158.585 379.914 151.958 L 409.661 144.093 C 409.527 152.565 411.461 161.063 415.49 168.747 L 386.957 176.291 Z" style="" transform="matrix(1, 0, 0, 1, 1.4210854715202004e-14, 0)"/>
  <path d="M 603.488 255.226 L 573.535 255.226 L 639.182 161.248 L 577.653 71.888 L 608.73 71.888 L 655.532 142.028 L 701.959 71.888 L 731.538 71.888 L 670.009 161.248 L 734.533 255.226 L 703.706 255.226 L 654.283 179.844 Z" style="fill: rgb(231, 0, 33); fill-rule: evenodd; isolation: isolate;"/>
  <path d="M 797.767 240.125 Q 813.492 240.125 823.913 226.958 Q 834.334 213.791 834.334 187.582 Q 834.334 171.607 829.717 160.125 Q 820.98 138.034 797.767 138.034 Q 774.428 138.034 765.817 161.373 Q 761.199 173.853 761.199 193.073 Q 761.199 208.549 765.817 219.407 Q 774.553 240.125 797.767 240.125 Z M 739.608 122.184 L 761.449 122.184 L 761.449 139.906 Q 768.188 130.796 776.175 125.804 Q 787.533 118.315 802.884 118.315 Q 825.598 118.315 841.448 135.726 Q 857.299 153.136 857.299 185.46 Q 857.299 229.142 834.459 247.863 Q 819.982 259.719 800.762 259.719 Q 785.661 259.719 775.427 253.104 Q 769.436 249.36 762.073 240.249 L 762.073 308.518 L 739.608 308.518 Z M 925.262 118.565 Q 939.489 118.565 952.843 125.242 Q 966.198 131.919 973.187 142.527 Q 979.926 152.637 982.173 166.115 Q 984.169 175.351 984.169 195.569 L 886.198 195.569 Q 886.822 215.913 895.808 228.206 Q 904.794 240.499 923.639 240.499 Q 941.237 240.499 951.72 228.892 Q 957.711 222.153 960.207 213.292 L 982.297 213.292 Q 981.424 220.655 976.494 229.703 Q 971.564 238.752 965.449 244.493 Q 955.215 254.477 940.113 257.972 Q 932.001 259.969 921.767 259.969 Q 896.806 259.969 879.458 241.809 Q 862.11 223.65 862.11 190.952 Q 862.11 158.752 879.583 138.658 Q 897.056 118.565 925.262 118.565 Z M 961.081 177.722 Q 959.708 163.12 954.715 154.384 Q 945.48 138.159 923.889 138.159 Q 908.413 138.159 897.929 149.329 Q 887.446 160.499 886.822 177.722 Z M 923.14 118.315 Z M 998.474 121.56 L 1019.816 121.56 L 1019.816 144.649 Q 1022.437 137.91 1032.671 128.237 Q 1042.905 118.565 1056.259 118.565 Q 1056.883 118.565 1058.38 118.69 Q 1059.878 118.814 1063.497 119.189 L 1063.497 142.902 Q 1061.501 142.527 1059.816 142.403 Q 1058.131 142.278 1056.134 142.278 Q 1039.16 142.278 1030.05 153.198 Q 1020.939 164.119 1020.939 178.346 L 1020.939 255.226 L 998.474 255.226 Z M 1073.563 84.244 L 1096.277 84.244 L 1096.277 121.56 L 1117.619 121.56 L 1117.619 139.906 L 1096.277 139.906 L 1096.277 227.145 Q 1096.277 234.134 1101.02 236.505 Q 1103.641 237.878 1109.756 237.878 Q 1111.378 237.878 1113.251 237.816 Q 1115.123 237.753 1117.619 237.504 L 1117.619 255.226 Q 1113.75 256.349 1109.569 256.848 Q 1105.388 257.348 1100.52 257.348 Q 1084.795 257.348 1079.179 249.298 Q 1073.563 241.248 1073.563 228.393 L 1073.563 139.906 L 1055.466 139.906 L 1055.466 121.56 L 1073.563 121.56 Z M 1126.18 121.56 L 1148.395 121.56 L 1148.395 140.53 Q 1156.382 130.671 1162.872 126.178 Q 1173.98 118.565 1188.083 118.565 Q 1204.058 118.565 1213.793 126.428 Q 1219.284 130.921 1223.777 139.657 Q 1231.265 128.924 1241.374 123.744 Q 1251.484 118.565 1264.089 118.565 Q 1291.047 118.565 1300.781 138.034 Q 1306.023 148.518 1306.023 166.24 L 1306.023 255.226 L 1282.685 255.226 L 1282.685 162.371 Q 1282.685 149.017 1276.008 144.025 Q 1269.331 139.033 1259.721 139.033 Q 1246.491 139.033 1236.944 147.894 Q 1227.396 156.755 1227.396 177.473 L 1227.396 255.226 L 1204.557 255.226 L 1204.557 167.988 Q 1204.557 154.384 1201.312 148.144 Q 1196.195 138.783 1182.217 138.783 Q 1169.487 138.783 1159.066 148.643 Q 1148.645 158.502 1148.645 184.337 L 1148.645 255.226 L 1126.18 255.226 Z M 1325.198 122.184 L 1348.037 122.184 L 1348.037 255.226 L 1325.198 255.226 Z M 1325.198 71.888 L 1348.037 71.888 L 1348.037 97.348 L 1325.198 97.348 Z M 1368.081 121.56 L 1389.423 121.56 L 1389.423 140.53 Q 1398.908 128.799 1409.516 123.682 Q 1420.124 118.565 1433.104 118.565 Q 1461.56 118.565 1471.544 138.409 Q 1477.035 149.267 1477.035 169.485 L 1477.035 255.226 L 1454.196 255.226 L 1454.196 170.983 Q 1454.196 158.752 1450.577 151.264 Q 1444.586 138.783 1428.861 138.783 Q 1420.873 138.783 1415.756 140.406 Q 1406.521 143.151 1399.532 151.388 Q 1393.915 158.003 1392.231 165.055 Q 1390.546 172.106 1390.546 185.211 L 1390.546 255.226 L 1368.081 255.226 Z M 1420.873 118.315 Z M 1510.56 189.953 Q 1510.56 211.42 1519.671 225.897 Q 1528.782 240.374 1548.875 240.374 Q 1564.476 240.374 1574.523 226.958 Q 1584.569 213.541 1584.569 188.455 Q 1584.569 163.12 1574.211 150.952 Q 1563.852 138.783 1548.626 138.783 Q 1531.652 138.783 1521.106 151.763 Q 1510.56 164.743 1510.56 189.953 Z M 1544.382 119.189 Q 1559.733 119.189 1570.092 125.679 Q 1576.083 129.423 1583.696 138.783 L 1583.696 71.264 L 1605.287 71.264 L 1605.287 255.226 L 1585.069 255.226 L 1585.069 236.63 Q 1577.206 248.986 1566.473 254.477 Q 1555.739 259.969 1541.886 259.969 Q 1519.546 259.969 1503.197 241.185 Q 1486.847 222.402 1486.847 191.201 Q 1486.847 161.997 1501.761 140.593 Q 1516.676 119.189 1544.382 119.189 Z" style="fill: rgb(51, 51, 51);"/>
  <path d="M 1643.812 196.069 Q 1644.685 211.669 1651.175 221.404 Q 1663.531 239.625 1694.732 239.625 Q 1708.71 239.625 1720.192 235.632 Q 1742.407 227.894 1742.407 207.925 Q 1742.407 192.948 1733.047 186.583 Q 1723.562 180.343 1703.343 175.725 L 1678.507 170.109 Q 1654.17 164.618 1644.061 158.003 Q 1626.589 146.521 1626.589 123.682 Q 1626.589 98.971 1643.687 83.12 Q 1660.785 67.27 1692.111 67.27 Q 1720.941 67.27 1741.097 81.186 Q 1761.253 95.102 1761.253 125.679 L 1737.914 125.679 Q 1736.042 110.952 1729.927 103.089 Q 1718.57 88.737 1691.362 88.737 Q 1669.397 88.737 1659.787 97.972 Q 1650.177 107.208 1650.177 119.438 Q 1650.177 132.917 1661.409 139.158 Q 1668.773 143.151 1694.732 149.142 L 1720.442 155.008 Q 1739.038 159.251 1749.147 166.615 Q 1766.619 179.47 1766.619 203.931 Q 1766.619 234.384 1744.467 247.488 Q 1722.314 260.593 1692.985 260.593 Q 1658.788 260.593 1639.443 243.12 Q 1620.099 225.772 1620.473 196.069 Z M 1693.983 66.896 Z" style="fill: rgb(0, 182, 190);"/>
</svg>