<?xml version="1.0" encoding="utf-8"?>
<svg viewBox="-434.599 -43.696 342.544 75.902" width="342.544" height="75.902" xmlns="http://www.w3.org/2000/svg">
  <defs>
    <linearGradient gradientUnits="userSpaceOnUse" x1="-220.398" y1="-53.609" x2="-220.398" y2="37.324" id="gradient-0" gradientTransform="matrix(1, 0, 0, 1, 5, -4)">
      <stop offset="0" style="stop-color: rgba(229, 227, 227, 1)"/>
      <stop offset="1" style="stop-color: rgba(180, 174, 174, 1)"/>
    </linearGradient>
  </defs>
  <path d="M -323.7 -29.492 Q -319.22 -29.492 -315.44 -28.057 Q -311.66 -26.622 -308.895 -23.787 Q -306.13 -20.952 -304.59 -16.717 Q -303.05 -12.482 -303.05 -6.812 Q -303.05 0.538 -306.06 5.718 Q -309.07 10.898 -315.79 14.678 L -325.31 19.998 Q -323.21 19.998 -321.425 20.523 Q -319.64 21.048 -317.82 21.678 Q -316 22.308 -314.04 22.833 Q -312.08 23.358 -309.7 23.358 Q -308.3 23.358 -306.725 22.903 Q -305.15 22.448 -303.75 21.468 L -301.23 26.158 Q -303.19 27.418 -305.535 28.048 Q -307.88 28.678 -309.91 28.678 Q -312.36 28.678 -314.775 28.013 Q -317.19 27.348 -319.57 26.543 Q -321.95 25.738 -324.26 25.073 Q -326.57 24.408 -328.88 24.408 Q -330.7 24.408 -332.485 24.968 Q -334.27 25.528 -336.09 26.578 L -338.75 21.748 L -327.97 15.518 Q -331.68 14.958 -334.725 13.243 Q -337.77 11.528 -339.975 8.763 Q -342.18 5.998 -343.405 2.078 Q -344.63 -1.842 -344.63 -6.812 Q -344.63 -12.342 -343.02 -16.577 Q -341.41 -20.812 -338.61 -23.682 Q -335.81 -26.552 -331.995 -28.022 Q -328.18 -29.492 -323.7 -29.492 Z M -337.63 -6.812 Q -337.63 -2.332 -336.65 0.993 Q -335.67 4.318 -333.885 6.558 Q -332.1 8.798 -329.65 9.918 Q -327.2 11.038 -324.33 11.038 Q -321.46 11.038 -318.87 9.883 Q -316.28 8.728 -314.32 6.453 Q -312.36 4.178 -311.205 0.853 Q -310.05 -2.472 -310.05 -6.812 Q -310.05 -11.432 -311.135 -14.722 Q -312.22 -18.012 -314.11 -20.147 Q -316 -22.282 -318.555 -23.297 Q -321.11 -24.312 -323.98 -24.312 Q -326.85 -24.312 -329.37 -23.262 Q -331.89 -22.212 -333.71 -20.042 Q -335.53 -17.872 -336.58 -14.582 Q -337.63 -11.292 -337.63 -6.812 Z M -281.702 -17.662 L -275.542 -17.662 L -275.542 15.238 L -280.372 15.238 L -281.212 11.108 L -281.492 11.108 Q -283.312 13.138 -286.007 14.503 Q -288.702 15.868 -292.272 15.868 Q -297.382 15.868 -300.567 12.963 Q -303.752 10.058 -303.752 4.178 L -303.752 -17.662 L -297.592 -17.662 L -297.592 3.408 Q -297.592 5.508 -297.067 6.978 Q -296.542 8.448 -295.667 9.323 Q -294.792 10.198 -293.602 10.583 Q -292.412 10.968 -291.012 10.968 Q -288.212 10.968 -285.972 9.778 Q -283.732 8.588 -281.702 6.488 Z M -273.443 15.238 L -273.443 -17.662 L -267.283 -17.662 L -267.283 15.238 Z M -270.363 -26.132 Q -271.973 -26.132 -273.128 -27.217 Q -274.283 -28.302 -274.283 -29.912 Q -274.283 -31.522 -273.128 -32.642 Q -271.973 -33.762 -270.363 -33.762 Q -268.823 -33.762 -267.633 -32.642 Q -266.443 -31.522 -266.443 -29.912 Q -266.443 -28.302 -267.633 -27.217 Q -268.823 -26.132 -270.363 -26.132 Z M -261.97 -28.862 L -251.4 -11.642 L -240.34 -28.862 L -233.27 -28.862 L -247.76 -7.162 L -232.57 15.238 L -239.99 15.238 L -251.4 -2.682 L -262.88 15.238 L -269.95 15.238 L -255.25 -7.162 L -269.32 -28.862 Z M -211.19 -29.492 Q -207.97 -29.492 -204.96 -28.967 Q -201.95 -28.442 -199.01 -27.042 L -200.55 -21.722 Q -203.56 -23.122 -205.975 -23.717 Q -208.39 -24.312 -210.91 -24.312 Q -214.9 -24.312 -217.21 -22.562 Q -219.52 -20.812 -219.52 -17.662 Q -219.52 -15.002 -217.805 -13.392 Q -216.09 -11.782 -212.17 -10.592 L -207.76 -9.192 Q -201.74 -7.302 -199.255 -4.047 Q -196.77 -0.792 -196.77 3.268 Q -196.77 6.138 -197.925 8.483 Q -199.08 10.828 -201.145 12.473 Q -203.21 14.118 -206.01 14.993 Q -208.81 15.868 -212.17 15.868 Q -215.53 15.868 -218.995 15.273 Q -222.46 14.678 -225.89 13.068 L -224.35 7.818 Q -221.34 9.288 -218.47 9.988 Q -215.6 10.688 -212.45 10.688 Q -208.67 10.688 -206.01 8.938 Q -203.35 7.188 -203.35 3.758 Q -203.35 2.498 -203.735 1.413 Q -204.12 0.328 -205.065 -0.652 Q -206.01 -1.632 -207.62 -2.472 Q -209.23 -3.312 -211.68 -4.082 L -216.09 -5.482 Q -220.92 -7.022 -223.51 -9.682 Q -226.1 -12.342 -226.1 -16.892 Q -226.1 -22.702 -222.285 -26.097 Q -218.47 -29.492 -211.19 -29.492 Z M -197.116 -14.722 Q -195.436 -15.562 -193.966 -16.227 Q -192.496 -16.892 -191.026 -17.312 Q -189.556 -17.732 -188.016 -17.942 Q -186.476 -18.152 -184.656 -18.152 Q -181.926 -18.152 -179.651 -17.557 Q -177.376 -16.962 -175.731 -15.562 Q -174.086 -14.162 -173.176 -11.887 Q -172.266 -9.612 -172.266 -6.182 L -172.266 15.238 L -177.376 15.238 L -178.146 11.598 L -178.286 11.598 Q -180.456 13.908 -183.046 14.888 Q -185.636 15.868 -188.786 15.868 Q -191.166 15.868 -193.161 15.203 Q -195.156 14.538 -196.626 13.313 Q -198.096 12.088 -198.901 10.338 Q -199.706 8.588 -199.706 6.418 Q -199.706 1.238 -195.611 -1.457 Q -191.516 -4.152 -184.796 -4.152 L -178.496 -4.152 L -178.496 -6.952 Q -178.496 -10.522 -180.316 -11.817 Q -182.136 -13.112 -185.216 -13.112 Q -187.036 -13.112 -189.381 -12.517 Q -191.726 -11.922 -194.736 -10.242 Z M -178.426 0.048 L -183.606 0.188 Q -188.856 0.328 -191.061 2.043 Q -193.266 3.758 -193.266 6.208 Q -193.266 7.678 -192.776 8.693 Q -192.286 9.708 -191.481 10.268 Q -190.676 10.828 -189.591 11.073 Q -188.506 11.318 -187.316 11.318 Q -185.006 11.318 -182.626 10.233 Q -180.246 9.148 -178.426 6.768 Z M -171.357 15.238 L -171.357 -34.462 L -165.337 -34.462 L -165.337 15.238 Z M -135.941 -0.512 L -159.531 -0.512 L -159.531 -0.232 Q -159.531 5.228 -156.556 8.168 Q -153.581 11.108 -148.471 11.108 Q -145.811 11.108 -143.746 10.688 Q -141.681 10.268 -139.231 9.288 L -137.971 13.838 Q -140.001 14.748 -142.766 15.308 Q -145.531 15.868 -148.681 15.868 Q -152.251 15.868 -155.366 14.888 Q -158.481 13.908 -160.861 11.843 Q -163.241 9.778 -164.606 6.558 Q -165.971 3.338 -165.971 -1.142 Q -165.971 -4.992 -164.816 -8.142 Q -163.661 -11.292 -161.561 -13.497 Q -159.461 -15.702 -156.486 -16.927 Q -153.511 -18.152 -149.801 -18.152 Q -146.651 -18.152 -144.096 -17.102 Q -141.541 -16.052 -139.721 -14.162 Q -137.901 -12.272 -136.921 -9.612 Q -135.941 -6.952 -135.941 -3.732 Z M -142.311 -4.922 Q -142.311 -6.742 -142.766 -8.317 Q -143.221 -9.892 -144.166 -11.082 Q -145.111 -12.272 -146.581 -12.972 Q -148.051 -13.672 -150.151 -13.672 Q -154.001 -13.672 -156.416 -11.222 Q -158.831 -8.772 -159.391 -4.782 Z M -118.577 -11.502 Q -120.887 -12.622 -122.777 -13.042 Q -124.667 -13.462 -126.557 -13.462 Q -129.917 -13.462 -131.527 -12.237 Q -133.137 -11.012 -133.137 -8.982 Q -133.137 -7.512 -132.017 -6.427 Q -130.897 -5.342 -127.327 -4.292 L -125.227 -3.662 Q -120.537 -2.262 -118.122 -0.057 Q -115.707 2.148 -115.707 5.928 Q -115.707 10.408 -119.032 13.138 Q -122.357 15.868 -128.307 15.868 Q -131.457 15.868 -134.362 15.308 Q -137.267 14.748 -139.367 13.768 L -137.897 8.938 Q -135.867 9.918 -133.487 10.513 Q -131.107 11.108 -128.657 11.108 Q -125.507 11.108 -123.652 9.988 Q -121.797 8.868 -121.797 6.278 Q -121.797 4.038 -123.407 3.093 Q -125.017 2.148 -128.027 1.238 L -130.197 0.538 Q -134.747 -0.932 -136.952 -3.137 Q -139.157 -5.342 -139.157 -8.842 Q -139.157 -10.942 -138.247 -12.692 Q -137.337 -14.442 -135.762 -15.632 Q -134.187 -16.822 -132.017 -17.487 Q -129.847 -18.152 -127.257 -18.152 Q -124.807 -18.152 -122.182 -17.697 Q -119.557 -17.242 -117.177 -16.192 Z" style="fill: url(#gradient-0);"/>
  <g transform="matrix(0.277479052544, 0, 0, 0.268514961004, -522.438450278916, -135.116287548138)" style="transform-origin: 128px 127.95px;">
    <g>
      <g>
        <g>
          <path fill="#4A555F" d="M129,153.1c-3,0-5.9-0.4-8.8-1.2c-8.3-2.4-15.2-7.8-19.5-15.4c-4.2-7.6-5.2-16.3-2.9-24.6 c3.9-13.9,16.7-23.6,31.2-23.6c3,0,5.9,0.4,8.8,1.2c8.3,2.4,15.2,7.8,19.5,15.4c4.2,7.6,5.2,16.3,2.9,24.6 C156.2,143.4,143.4,153.1,129,153.1z M129,91.3c-13.1,0-24.7,8.8-28.2,21.4c-2.1,7.5-1.2,15.5,2.6,22.3 c3.8,6.8,10.1,11.8,17.6,13.9c2.6,0.7,5.3,1.1,8,1.1c13.1,0,24.7-8.8,28.2-21.4c2.1-7.5,1.2-15.5-2.6-22.3 c-3.8-6.8-10.1-11.8-17.6-13.9C134.3,91.7,131.6,91.3,129,91.3z"/>
        </g>
        <g>
          <path fill="#FFD552" d="M129,146.1c-2.3,0-4.7-0.3-6.9-1c-6.5-1.8-11.9-6.1-15.2-12c-3.3-5.9-4.1-12.8-2.3-19.3 c3.1-10.9,13.1-18.5,24.4-18.5c2.3,0,4.7,0.3,6.9,1c6.5,1.8,11.9,6.1,15.2,12c3.3,5.9,4.1,12.8,2.3,19.3 C150.3,138.5,140.3,146.1,129,146.1z"/>
        </g>
      </g>
      <g>
        <path fill="#4A555F" d="M170.9,255.6l-0.1-46.2l0.3-0.4l71-90.3c3-3.8,4.4-8.6,3.8-13.5c-0.6-4.8-3.1-9.2-6.9-12.1 c-7.8-6-18.8-4.8-25.1,2.8l-48.5,58.8l-74.8,0.1L42,96.2c-6.3-7.6-17.3-8.8-25.1-2.8c-3.9,3-6.3,7.3-6.9,12.2 c-0.6,4.8,0.8,9.6,3.8,13.5l71.5,90.5l0.1,46.1l-3,0l-0.1-45l-70.9-89.7c-3.5-4.5-5.1-10.1-4.4-15.7c0.7-5.7,3.5-10.7,8-14.2 c9.1-7.1,22-5.6,29.3,3.3l47.7,57.6l72-0.1L211.6,94c7.3-8.9,20.2-10.4,29.3-3.3c4.5,3.5,7.4,8.5,8.1,14.2 c0.7,5.7-0.9,11.2-4.4,15.7l-70.7,89.9l0.1,45.1L170.9,255.6z"/>
      </g>
      <g>
        <path fill="#E0E0E0" d="M116.9,231.2l7.4,24.4H89.4l-0.1-47.4l-72.4-91.6c-2.4-3-3.4-6.7-2.9-10.5c0.5-3.8,2.4-7.2,5.4-9.5 c2.5-2,5.5-3,8.7-3c4.3,0,8.2,1.9,10.9,5.2l49.8,60.2l12.4,0h0.1l5.9,27.6l9.6,44.5L116.9,231.2z"/>
      </g>
      <g>
        <path fill="#E0E0E0" d="M239.1,116.3l-72.2,91.8l0.1,47.5h-34.6l7.4-23.6h0l0.1-0.3l14.6-63.6l0.3-1.4l1.8-7.9h0.1l10.7,0 L217,98.5c2.7-3.3,6.7-5.2,11-5.2c3.1,0,6.1,1,8.7,3c3,2.3,5,5.7,5.4,9.5C242.5,109.6,241.5,113.3,239.1,116.3z"/>
      </g>
      <g>
        <g>
          <g>
            <g>
              <polygon fill="#F68F6F" points="139.7,232 139.8,232.2 133.3,255.6 123.3,255.6 116.8,231.5 116.9,231.2 122.1,181.7 &#10;&#9;&#9;&#9;&#9;&#9;&#9;&#9;118.6,171.7 115.9,164.2 140.6,164.2 137.9,171.7 134.4,181.7 139.7,232 &#9;&#9;&#9;&#9;&#9;&#9;"/>
            </g>
          </g>
          <g>
            <path fill="#4A555F" d="M135.6,183.2h-14.5l-7.3-20.5h29L135.6,183.2z M123.2,180.1h10.2l5.1-14.4h-20.4L123.2,180.1z"/>
          </g>
          <g>
            <polygon fill="#4A555F" points="138.3,232.4 133.1,183.2 123.5,183.2 118.3,231.6 115.3,231.3 120.8,180.1 135.9,180.1 &#10;&#9;&#9;&#9;&#9;&#9;&#9;141.3,232.1 &#9;&#9;&#9;&#9;&#9;"/>
          </g>
          <g>
            <path fill="#4A555F" d="M106.5,190.4l-8.1-37.7h15.1l6.8,19.3L106.5,190.4z M102.1,155.8l5.9,27.5l8.8-11.8l-5.6-15.7H102.1z"/>
          </g>
          <g>
            <path fill="#4A555F" d="M150.7,191.5L136.4,172l6.8-19.2h16.4L150.7,191.5z M139.8,171.5l9.4,12.8l6.5-28.5h-10.4L139.8,171.5z "/>
          </g>
          <g>
            <polygon fill="#4A555F" points="134.7,256 131.8,255.2 138.3,231.8 152.9,168.2 153.3,166.8 155.8,155.8 102.1,155.8 &#10;&#9;&#9;&#9;&#9;&#9;&#9;102.8,158.9 118.3,231.1 124.8,255.2 121.8,256 115.4,231.9 98.8,154.6 100.3,152.7 157.7,152.7 159.2,154.6 155.9,168.9 &#10;&#9;&#9;&#9;&#9;&#9;&#9;141.3,232.6 &#9;&#9;&#9;&#9;&#9;"/>
          </g>
        </g>
      </g>
    </g>
    <g>
      <path fill="#4A555F" d="M233.8,88.1c-0.1-0.9-0.3-1.9-0.5-2.9l3-0.6c0.2,1,0.4,2.1,0.5,3.1L233.8,88.1z M232.6,82.4 c-0.3-0.9-0.6-1.8-1-2.7l2.8-1.1c0.4,1,0.8,2,1.1,3L232.6,82.4z M230.4,77c-0.4-0.9-0.9-1.7-1.4-2.6l2.6-1.5 c0.5,0.9,1,1.8,1.5,2.8L230.4,77z M227.5,71.9c-0.5-0.8-1.1-1.6-1.7-2.4l2.4-1.8c0.6,0.9,1.3,1.7,1.8,2.6L227.5,71.9z M223.9,67.2 c-0.6-0.7-1.3-1.5-2-2.2l2.2-2.1c0.7,0.8,1.4,1.6,2.1,2.3L223.9,67.2z M219.9,62.8c-0.7-0.7-1.4-1.4-2.2-2.1l2.1-2.2 c0.8,0.7,1.5,1.4,2.3,2.1L219.9,62.8z M215.5,58.8c-0.8-0.6-1.5-1.3-2.3-1.9l1.9-2.4c0.8,0.6,1.6,1.3,2.4,2L215.5,58.8z"/>
    </g>
    <g>
      <path fill="#4A555F" d="M134.8,36.3l-3-0.2l0.2-3l3,0.2L134.8,36.3z M128.8,35.9c-1,0-1.9-0.1-3-0.1l0-3c1.1,0,2.1,0,3.1,0.1 L128.8,35.9z M119.8,35.9l-0.1-3c1.2,0,2.2,0,3.1,0l0,3C121.9,35.9,120.9,35.9,119.8,35.9z"/>
    </g>
    <g>
      <path fill="#4A555F" d="M23.4,90h-3c0-1.1,0.1-2.1,0.2-3.2l3,0.3C23.4,88.1,23.4,89.1,23.4,90z M24,84.3l-3-0.6 c0.2-1,0.5-2.1,0.8-3.1l2.9,0.9C24.4,82.4,24.1,83.4,24,84.3z M25.6,78.8l-2.8-1.2c0.4-1,0.8-1.9,1.3-2.9l2.7,1.4 C26.4,77,26,77.9,25.6,78.8z M28.3,73.6L25.7,72c0.5-0.9,1.1-1.8,1.7-2.6l2.5,1.8C29.4,71.9,28.8,72.8,28.3,73.6z M31.7,68.8 l-2.4-1.9c0.6-0.8,1.3-1.6,2.1-2.4l2.2,2.1C33,67.3,32.3,68,31.7,68.8z M35.7,64.4l-2.1-2.2c0.7-0.7,1.5-1.4,2.3-2.1l2,2.3 C37.1,63.1,36.4,63.8,35.7,64.4z M40.2,60.5l-1.9-2.4c0.8-0.7,1.6-1.3,2.5-1.9l1.8,2.4C41.7,59.2,40.9,59.9,40.2,60.5z"/>
    </g>
    <g>
      <path fill="#FFD552" d="M77.6,68.9C60.5,68.9,46.6,55,46.6,38S60.5,7,77.6,7s30.9,13.9,30.9,30.9S94.6,68.9,77.6,68.9z"/>
    </g>
    <g>
      <g>
        <path fill="#4A555F" d="M77.1,53.3c-4.8,0-8.7-3.9-8.7-8.7h3c0,3.1,2.5,5.7,5.7,5.7c3.1,0,5.7-2.5,5.7-5.7c0-2.8-2.3-5.1-5.1-5.1 h-1.2c-4.5,0-8.1-3.7-8.1-8.1v-0.5c0-4.8,3.9-8.7,8.7-8.7c4.8,0,8.7,3.9,8.7,8.7V31h-3v-0.1c0-3.1-2.5-5.7-5.7-5.7 c-3.1,0-5.7,2.5-5.7,5.7v0.5c0,2.8,2.3,5.1,5.1,5.1h1.2c4.5,0,8.1,3.7,8.1,8.1C85.8,49.4,81.9,53.3,77.1,53.3z"/>
      </g>
      <g>
        <rect x="75.6" y="17.2" fill="#4A555F" width="3" height="6.5"/>
      </g>
      <g>
        <rect x="75.6" y="51.8" fill="#4A555F" width="3" height="6.5"/>
      </g>
    </g>
    <g>
      <path fill="#4A555F" d="M77.6,75.9c-20.9,0-38-17-38-38s17-38,38-38s38,17,38,38S98.5,75.9,77.6,75.9z M77.6,3 C58.3,3,42.7,18.7,42.7,38s15.7,34.9,34.9,34.9s34.9-15.7,34.9-34.9S96.8,3,77.6,3z"/>
    </g>
    <g>
      <path fill="#4A555F" d="M177.5,75.9c-20.9,0-38-17-38-38s17-38,38-38s38,17,38,38S198.4,75.9,177.5,75.9z M177.5,3 c-19.3,0-34.9,15.7-34.9,34.9s15.7,34.9,34.9,34.9s34.9-15.7,34.9-34.9S196.7,3,177.5,3z"/>
    </g>
    <g>
      <path fill="#71CDE1" d="M177.5,68.9c-17.1,0-30.9-13.9-30.9-30.9S160.4,7,177.5,7s30.9,13.9,30.9,30.9S194.6,68.9,177.5,68.9z"/>
    </g>
    <g>
      <g>
        <g>
          <g>
            <polygon fill="#4A555F" points="180.6,60.4 174.9,60.4 171.8,52.5 164,55.9 161,52.9 163.1,50.7 164.7,52.3 173.5,48.4 &#10;&#9;&#9;&#9;&#9;&#9;&#9;177,57.4 178.5,57.4 182,48.4 190.9,52.3 191.9,51.2 188.1,42.4 197,38.8 197,37.4 188.1,33.8 191.9,25 190.1,23.2 192.3,21.1 &#10;&#9;&#9;&#9;&#9;&#9;&#9;195.5,24.3 192.1,32.2 200.1,35.3 200.1,40.9 192.1,44.1 195.5,51.9 191.5,55.9 183.7,52.5 &#9;&#9;&#9;&#9;&#9;"/>
          </g>
        </g>
        <g>
          <g>
            <g>
              <polygon fill="#4A555F" points="161,52.9 159.5,51.4 162.9,43.5 154.9,40.4 154.9,34.8 162.9,31.6 159.5,23.8 163.4,19.8 &#10;&#9;&#9;&#9;&#9;&#9;&#9;&#9;171.3,23.2 174.4,15.3 180,15.3 183.2,23.2 191,19.8 192.3,21.1 191,22.4 191.3,23 181.5,27.3 178,18.3 176.5,18.3 173,27.3 &#10;&#9;&#9;&#9;&#9;&#9;&#9;&#9;164.1,23.4 163.1,24.5 166.9,33.3 158,36.8 158,38.3 166.9,41.8 163.1,50.7 163.1,50.7 163.1,50.7 162.7,51.6 162.3,51.5 &#10;&#9;&#9;&#9;&#9;&#9;&#9;&#9;&#9;&#9;&#9;&#9;&#9;&#9;"/>
            </g>
          </g>
          <g>
            <path fill="#4A555F" d="M177.5,46.8c-4.8,0-8.8-3.9-8.8-8.8s3.9-8.8,8.8-8.8s8.8,3.9,8.8,8.8S182.3,46.8,177.5,46.8z M177.5,32.2c-3.2,0-5.7,2.6-5.7,5.7s2.6,5.7,5.7,5.7s5.7-2.6,5.7-5.7S180.6,32.2,177.5,32.2z"/>
          </g>
        </g>
      </g>
    </g>
  </g>
</svg>