<svg id="filled_outline" data-name="filled outline" xmlns="http://www.w3.org/2000/svg" viewBox="0 0 340 340"><rect x="107.532" y="103.252" width="18.757" height="79.289" transform="translate(-45.631 55.33) rotate(-22.399)" style="fill:#7cb4f7"/><polygon points="110.475 102.669 93.133 109.817 96.556 118.124 117.223 119.043 110.475 102.669" style="fill:#5793ce"/><path d="M116.364,100.242l-29.121,12L63.98,55.8A15.749,15.749,0,1,1,93.1,43.8Z" style="fill:#4f5865"/><rect x="120.421" y="107.309" width="109.522" height="25.106" transform="matrix(0.065, -0.998, 0.998, 0.065, 44.186, 286.882)" style="fill:#fff"/><path d="M182.337,10.621a12.553,12.553,0,0,0-13.343,11.71l-2.779,42.663,25.053,1.633,2.78-42.664A12.554,12.554,0,0,0,182.337,10.621Z" style="fill:#fc707e"/><polygon points="188.385 110.296 160.528 158.945 159.096 173.691 184.149 175.323 188.385 110.296" style="fill:#d0cde2"/><path d="M263.68,14.381h0a21.494,21.494,0,0,0-27.931,11.993L174.894,178.811l39.924,15.938L275.673,42.313A21.494,21.494,0,0,0,263.68,14.381ZM259.531,35.39c-.972,4.673-7.886,3.99-7.93-.78C251.849,28.826,260.412,29.664,259.531,35.39Z" style="fill:#c7e2ff"/><path d="M230.916,189.192H109.1A13.294,13.294,0,0,1,95.81,175.9v-9.978h148.4V175.9A13.294,13.294,0,0,1,230.916,189.192Z" style="fill:#ffc998"/><path d="M109.1,189.192H230.916V312.924A17.077,17.077,0,0,1,213.839,330H126.181A17.077,17.077,0,0,1,109.1,312.924Z" style="fill:#ffc998"/><path d="M160.322,196.305l20.687,6.758a29.679,29.679,0,0,1,20.463,28.213v78.2s-.04,15.339-13.152,20.528h25.519a17.077,17.077,0,0,0,17.077-17.076V189.192c-16.806,0-52.946,0-69.461,0A3.647,3.647,0,0,0,160.322,196.305Z" style="fill:#f49d70"/><path d="M189.655,189.192h41.261a13.294,13.294,0,0,0,13.294-13.3v-9.978H209.455C211.516,177.634,201.916,189.457,189.655,189.192Z" style="fill:#f49d70"/><path d="M230.826,154.654a4,4,0,0,0,5.2-2.232L279.388,43.8c5.342-12.62-1.392-28.314-14.225-33.13-12.624-5.342-28.311,1.392-33.129,14.226-13.625,34.159-41.091,102.907-54.7,137.027H163.872l6.075-93.266,7.65.5a4,4,0,0,0,.52-7.983l-7.65-.5L172.986,22a8.5,8.5,0,0,1,2.893-5.873c5.5-5.032,14.812-.465,14.177,6.985-1.49,22.912-4.565,70.057-6.067,93.128-.229,5.222,7.5,5.817,7.984.52,1.489-23.147,4.583-70.156,6.066-93.128a16.44,16.44,0,0,0-4.077-11.995C184.462.593,165.8,6.922,165,21.478c-1.814,27.818-7.257,111.414-9.149,140.441H118.933L98.355,111.991l9.946-4.1,18.212,44.189a4,4,0,0,0,7.4-3.048L115.7,104.844l2.192-.9a4.025,4.025,0,0,0,2.174-5.222L96.8,42.274c-6.552-16.15-29.873-16.217-36.492-.064a19.617,19.617,0,0,0-.026,15.115L71.839,85.366a29.594,29.594,0,0,1,1.551,17.681,37.554,37.554,0,0,0,1.972,22.446l7.211,17.5c2.1,4.821,9.316,1.849,7.4-3.049l-7.21-17.5a29.574,29.574,0,0,1-1.967-15.354l2.753,6.678a4.024,4.024,0,0,0,5.222,2.174l2.192-.9,19.321,46.879H95.81a4,4,0,0,0-4,4V175.9A17.312,17.312,0,0,0,105.1,192.706V312.924A21.1,21.1,0,0,0,126.181,334h87.658a21.1,21.1,0,0,0,21.077-21.076V192.706A17.312,17.312,0,0,0,248.21,175.9v-9.978a4,4,0,0,0-4-4H185.944l6.091-15.257,11.936,4.765a4,4,0,0,0,2.965-7.43L195,139.232l6.171-15.457,7.173,2.863a4,4,0,0,0,2.967-7.429l-7.174-2.864,6.171-15.458,11.936,4.765a4,4,0,0,0,2.966-7.43l-11.936-4.765L219.446,78l7.174,2.864a4,4,0,0,0,2.966-7.43l-7.174-2.864,6.171-15.458,11.936,4.765a4,4,0,1,0,2.966-7.429l-11.936-4.765,7.914-19.825a17.384,17.384,0,0,1,9.345-9.589,17.578,17.578,0,0,1,22.978,9.173,17.377,17.377,0,0,1,.172,13.389L228.594,149.456A4,4,0,0,0,230.826,154.654ZM91.607,106.119l-2.19.9c-4.077-9.935-12.95-31.39-16.951-41.13L67.678,54.276a11.671,11.671,0,0,1,.016-8.992c3.8-9.563,17.943-9.545,21.709.039l21.739,52.745Zm148.6,63.8V175.9a9.306,9.306,0,0,1-9.294,9.3H218.752a4,4,0,0,0,0,8h8.164V312.924A13.091,13.091,0,0,1,213.839,326H126.181A13.092,13.092,0,0,1,113.1,312.924V193.192h59.237a4,4,0,0,0,0-8H109.1a9.306,9.306,0,0,1-9.294-9.3v-5.978Z" style="fill:#2f313f"/><path d="M194.075,193.192h3.5c5.275-.134,5.275-7.867,0-8h-3.5C188.8,185.325,188.8,193.058,194.075,193.192Z" style="fill:#2f313f"/><path d="M252.281,36.83c3.406,4.687,10.08-.789,6.15-5.05C255.044,28.433,249.641,32.854,252.281,36.83Z" style="fill:#2f313f"/></svg>